{"glyphs":{"0":{"ha":713,"x_min":35,"x_max":678,"o":"m 678 394 q 578 106 678 231 q 315 -18 478 -18 q 109 68 183 -18 q 35 286 35 154 q 135 575 35 451 q 397 699 235 699 q 603 613 529 699 q 678 394 678 526 m 558 413 q 389 613 558 613 q 275 581 324 613 q 201 498 226 550 q 165 389 176 446 q 153 269 153 332 q 324 68 153 68 q 419 89 376 68 q 487 144 461 110 q 529 224 513 178 q 552 316 546 269 q 558 413 558 363 z "},"1":{"ha":522,"x_min":53,"x_max":478,"o":"m 478 93 l 465 0 l 53 0 l 64 93 l 218 93 l 281 557 l 128 514 l 119 579 l 342 685 l 408 685 l 329 93 l 478 93 z "},"2":{"ha":625,"x_min":49,"x_max":593,"o":"m 49 0 l 49 74 q 346 364 297 317 q 442 526 442 457 q 421 586 442 560 q 357 613 400 613 q 268 587 313 613 q 201 535 224 561 l 179 508 l 114 561 q 378 699 225 699 q 513 655 458 699 q 568 532 568 611 q 411 279 568 413 l 194 94 l 593 94 l 574 0 l 49 0 z "},"3":{"ha":528,"x_min":-118,"x_max":479,"o":"m 479 579 q 419 434 479 508 q 281 307 358 360 q 310 308 290 308 q 423 264 382 308 q 464 146 464 219 q 410 -42 464 43 q 271 -178 357 -126 q 85 -260 185 -231 q -112 -294 -14 -290 l -118 -222 q 33 -189 -44 -215 q 181 -119 111 -162 q 297 -12 251 -76 q 342 126 342 53 q 243 218 342 218 q 133 197 196 218 l 106 272 q 275 401 194 319 q 356 557 356 483 q 294 613 356 613 q 138 535 224 613 l 79 586 q 198 668 128 638 q 335 699 268 699 q 438 670 397 699 q 479 579 479 642 z "},"4":{"ha":664,"x_min":-4,"x_max":629,"o":"m 629 96 l 613 0 l 483 0 l 449 -254 l 339 -254 l 374 0 l -4 0 l -4 57 l 444 681 l 575 681 l 497 96 l 629 96 m 447 543 l 125 96 l 386 96 l 447 543 z "},"5":{"ha":478,"x_min":-36,"x_max":456,"o":"m 456 681 l 422 564 l 189 564 l 146 454 q 216 408 182 435 q 289 338 250 381 q 351 237 328 296 q 375 111 375 178 q 335 -58 375 18 q 237 -174 294 -133 q 122 -243 179 -215 q 24 -279 64 -271 l -17 -287 l -36 -215 q 256 104 256 -119 q 188 267 256 188 q 25 393 121 347 l 143 681 l 456 681 z "},"6":{"ha":690,"x_min":42,"x_max":686,"o":"m 686 940 q 399 758 525 875 q 213 492 274 640 q 406 560 301 560 q 563 494 503 560 q 624 331 624 428 q 531 84 624 186 q 294 -18 438 -18 q 110 64 179 -18 q 42 263 42 146 q 46 326 42 293 q 189 666 74 515 q 481 924 304 817 q 654 1008 575 981 l 686 940 m 501 314 q 465 422 501 379 q 365 465 429 465 q 176 372 275 465 q 163 260 163 313 q 199 124 163 181 q 307 68 236 68 q 448 144 394 68 q 501 314 501 221 z "},"7":{"ha":565,"x_min":31,"x_max":546,"o":"m 546 624 l 179 -254 l 60 -254 l 415 576 l 31 576 l 57 681 l 546 681 l 546 624 z "},"8":{"ha":640,"x_min":33,"x_max":606,"o":"m 606 813 q 556 660 606 728 q 419 524 507 593 q 490 440 465 472 q 539 356 515 408 q 563 250 563 303 q 480 53 563 125 q 264 -18 397 -18 q 88 44 143 -18 q 33 194 33 106 q 51 288 33 243 q 105 374 68 332 q 172 443 142 415 q 256 513 203 471 q 139 756 139 642 q 153 834 139 793 q 197 914 168 875 q 278 978 225 953 q 397 1003 331 1003 q 508 981 463 1003 q 573 924 554 958 q 599 863 592 889 q 606 813 606 838 m 497 808 q 474 885 497 849 q 400 921 450 921 q 298 872 331 921 q 265 772 265 822 q 288 688 265 728 q 360 593 311 649 q 497 808 497 708 m 438 246 q 315 444 438 317 q 188 324 232 381 q 144 201 144 268 q 183 99 144 135 q 276 64 222 64 q 389 110 340 64 q 438 246 438 157 z "},"9":{"ha":675,"x_min":-10,"x_max":640,"o":"m 640 424 q 636 356 640 389 q 493 20 610 167 q 197 -225 376 -126 q 22 -299 121 -267 l -10 -226 q 469 189 358 -76 q 275 121 381 121 q 121 192 182 121 q 60 356 60 264 q 156 595 60 492 q 388 699 251 699 q 574 622 507 699 q 640 424 640 544 m 519 426 q 485 560 519 507 q 375 613 450 613 q 235 535 290 613 q 181 367 181 457 q 217 259 181 303 q 318 215 254 215 q 506 308 407 215 q 519 426 519 364 z "},"\u0000":{"ha":0,"x_min":0,"x_max":0,"o":""},"\r":{"ha":325,"x_min":0,"x_max":0,"o":""}," ":{"ha":325,"x_min":0,"x_max":0,"o":""},"$":{"ha":554,"x_min":17,"x_max":518,"o":"m 518 647 l 468 563 q 333 611 397 611 q 243 583 282 611 q 204 504 204 554 q 231 448 204 474 q 297 401 258 422 q 375 354 336 379 q 441 288 414 329 q 468 192 468 246 q 407 46 468 101 q 254 -19 346 -10 l 226 -172 l 118 -172 l 165 -18 q 17 35 100 -10 l 78 124 q 215 65 150 65 q 310 97 268 65 q 353 179 353 128 q 326 244 353 215 q 260 294 299 272 q 182 339 221 315 q 116 401 143 363 q 89 490 89 440 q 151 635 89 582 q 306 697 213 689 l 336 851 l 444 851 l 396 694 q 518 647 460 686 z "},"%":{"ha":1099,"x_min":63,"x_max":1036,"o":"m 1036 314 q 1008 172 1036 244 q 919 47 979 100 q 786 -7 860 -7 q 646 58 696 -7 q 596 214 596 124 q 665 435 596 336 q 854 533 735 533 q 989 468 942 533 q 1036 314 1036 403 m 894 985 l 285 -18 l 190 -18 l 754 907 l 464 907 q 501 768 501 847 q 473 626 501 699 q 385 501 444 554 q 253 447 326 447 q 113 513 163 447 q 63 668 63 578 q 131 887 63 789 q 319 985 200 985 l 894 985 m 935 311 q 913 409 935 365 q 846 453 892 453 q 739 374 782 453 q 696 219 696 294 q 721 122 696 167 q 793 76 746 76 q 897 156 858 76 q 935 311 935 235 m 400 767 q 378 863 400 819 q 313 907 357 907 q 206 829 249 907 q 163 674 163 751 q 188 575 163 619 q 260 531 213 531 q 363 610 325 531 q 400 767 400 690 z "},"&":{"ha":915,"x_min":51,"x_max":908,"o":"m 908 421 q 760 292 904 292 l 739 292 q 591 67 703 153 q 319 -18 479 -18 q 131 55 210 -18 q 51 238 51 128 q 207 551 51 429 q 178 661 178 601 q 283 877 178 797 q 538 957 389 957 q 668 935 600 957 q 768 876 736 914 l 710 811 q 551 875 643 875 q 365 810 435 875 q 294 638 294 744 q 300 606 294 624 q 464 642 381 642 q 566 618 529 642 q 603 550 603 594 q 554 467 603 503 q 431 432 506 432 q 268 486 339 432 q 202 375 225 438 q 179 258 179 313 q 227 131 179 178 q 356 85 275 85 q 549 147 464 85 q 635 260 635 208 q 571 317 635 317 q 531 300 546 317 q 513 267 515 283 l 428 267 q 478 359 431 328 q 585 390 526 390 l 768 375 q 806 387 790 375 q 824 421 822 399 l 908 421 m 506 543 q 453 569 506 569 q 338 540 392 569 q 424 506 372 506 q 485 517 465 506 q 506 543 506 528 z "},"'":{"ha":218,"x_min":89,"x_max":235,"o":"m 235 1006 l 200 761 l 140 606 l 101 606 l 89 764 l 124 1006 l 235 1006 z "},"(":{"ha":449,"x_min":82,"x_max":494,"o":"m 494 1010 q 196 263 196 682 q 325 -181 196 25 l 235 -194 q 82 292 82 28 q 169 679 82 490 q 406 1024 256 868 l 494 1010 z "},")":{"ha":456,"x_min":0,"x_max":413,"o":"m 413 536 q 326 149 413 338 q 90 -194 240 -39 l 0 -181 q 299 565 299 146 q 169 1010 299 804 l 260 1024 q 413 536 413 801 z "},"*":{"ha":563,"x_min":104,"x_max":611,"o":"m 611 785 l 415 746 l 407 806 l 585 892 l 611 785 m 440 1006 l 389 815 l 331 815 l 331 1006 l 440 1006 m 521 590 l 425 524 l 354 696 l 403 726 l 521 590 m 315 803 l 289 753 l 104 782 l 147 886 l 315 803 m 333 694 l 215 526 l 139 590 l 290 731 l 333 694 z "},"+":{"ha":892,"x_min":94,"x_max":788,"o":"m 788 293 l 489 293 l 489 0 l 392 0 l 392 293 l 94 293 l 94 389 l 392 389 l 392 681 l 489 681 l 489 389 l 788 389 l 788 293 z "},",":{"ha":349,"x_min":25,"x_max":238,"o":"m 238 69 q 188 -63 238 0 q 67 -174 138 -126 l 25 -128 l 33 -121 q 106 -25 106 -62 q 78 15 106 -15 q 50 75 50 46 q 78 142 50 118 q 146 167 106 167 q 213 139 189 167 q 238 69 238 111 z "},"-":{"ha":450,"x_min":47,"x_max":397,"o":"m 397 407 l 382 308 l 47 308 l 63 407 l 397 407 z "},".":{"ha":343,"x_min":49,"x_max":232,"o":"m 140 -18 q 75 9 101 -18 q 49 75 49 36 q 75 140 49 113 q 139 167 101 167 q 205 140 178 167 q 232 75 232 114 q 205 9 232 36 q 140 -18 178 -18 z "},"/":{"ha":407,"x_min":-19,"x_max":426,"o":"m 426 1006 l 75 -11 l -19 -11 l 335 1006 l 426 1006 z "},":":{"ha":343,"x_min":49,"x_max":294,"o":"m 140 -18 q 75 9 101 -18 q 49 75 49 36 q 75 140 49 113 q 139 167 101 167 q 205 140 178 167 q 232 75 232 114 q 205 9 232 36 q 140 -18 178 -18 m 203 410 q 138 437 164 410 q 111 503 111 464 q 138 567 111 540 q 201 594 164 594 q 267 568 240 594 q 294 503 294 542 q 267 437 294 464 q 203 410 240 410 z "},";":{"ha":349,"x_min":25,"x_max":297,"o":"m 206 410 q 140 437 167 410 q 114 503 114 464 q 140 567 114 540 q 204 594 167 594 q 270 568 243 594 q 297 503 297 542 q 270 437 297 464 q 206 410 243 410 m 238 69 q 188 -63 238 0 q 67 -174 138 -126 l 25 -128 l 33 -121 q 106 -25 106 -62 q 78 15 106 -15 q 50 75 50 46 q 78 142 50 118 q 146 167 106 167 q 213 139 189 167 q 238 69 238 111 z "},"<":{"ha":875,"x_min":94,"x_max":786,"o":"m 786 -10 l 94 289 l 94 390 l 786 686 l 786 581 l 224 338 l 786 94 l 786 -10 z "},"=":{"ha":875,"x_min":94,"x_max":788,"o":"m 788 424 l 94 424 l 94 518 l 788 518 l 788 424 m 788 160 l 94 160 l 94 256 l 788 256 l 788 160 z "},">":{"ha":875,"x_min":94,"x_max":786,"o":"m 786 289 l 94 -10 l 94 94 l 657 338 l 94 581 l 94 686 l 786 390 l 786 289 z "},"?":{"ha":531,"x_min":49,"x_max":535,"o":"m 535 810 q 499 685 535 735 q 413 615 464 636 q 310 577 361 593 q 223 537 258 561 q 188 474 188 513 q 219 414 188 438 q 284 384 250 390 q 356 376 318 378 l 329 282 q 151 338 224 292 q 79 479 79 385 q 115 593 79 549 q 201 658 150 638 q 302 697 251 679 q 388 749 353 715 q 424 836 424 782 q 392 899 424 875 q 318 922 360 922 q 213 903 247 922 l 189 996 q 314 1013 243 1013 q 474 960 413 1013 q 535 810 535 907 m 140 -21 q 75 6 101 -21 q 49 72 49 33 q 75 137 49 110 q 139 164 101 164 q 205 138 178 164 q 232 72 232 111 q 205 6 232 33 q 140 -21 178 -21 z "},"@":{"ha":1154,"x_min":71,"x_max":1082,"o":"m 619 -104 l 636 -161 q 508 -178 574 -178 q 194 -51 318 -178 q 71 267 71 76 q 137 545 71 413 q 333 767 203 678 q 629 856 464 856 q 951 742 821 856 q 1082 432 1082 628 q 1009 182 1082 292 q 819 72 936 72 q 676 157 715 72 q 672 158 675 158 q 599 93 643 117 q 513 69 556 69 q 386 127 428 69 q 344 274 344 185 q 376 422 344 346 q 474 554 407 497 q 624 611 540 611 q 740 561 694 611 q 763 601 749 574 l 814 601 q 758 204 758 235 q 822 132 758 132 q 960 223 907 132 q 1013 432 1013 314 q 903 699 1013 600 q 629 797 793 797 q 425 751 519 797 q 269 628 331 704 q 174 458 208 553 q 140 267 140 364 q 244 -9 140 101 q 508 -119 349 -119 q 619 -104 563 -119 m 708 499 q 619 543 668 543 q 522 492 564 543 q 464 381 481 440 q 447 271 447 321 q 532 138 447 138 q 611 174 578 138 q 664 277 644 210 q 692 388 683 344 q 708 499 700 431 z "},"A":{"ha":842,"x_min":-8,"x_max":779,"o":"m 779 0 l 644 0 l 579 346 l 264 346 l 104 0 l -8 0 l 461 1006 l 582 1006 l 779 0 m 561 439 l 488 836 l 307 439 l 561 439 z "},"B":{"ha":806,"x_min":63,"x_max":764,"o":"m 764 797 q 708 640 764 706 q 561 549 651 574 q 694 471 646 526 q 742 326 742 415 q 325 0 742 0 l 63 0 l 186 915 l 186 1006 l 494 1006 q 764 797 764 1006 m 633 792 q 479 910 633 910 l 310 910 l 268 593 l 406 593 q 572 642 511 593 q 633 792 633 692 m 613 335 q 551 455 613 417 q 400 493 490 493 l 253 493 l 201 96 l 344 96 q 541 154 469 96 q 613 335 613 213 z "},"C":{"ha":813,"x_min":63,"x_max":861,"o":"m 861 913 l 783 832 q 574 924 704 924 q 406 875 481 924 q 287 749 331 826 q 220 582 243 671 q 197 406 197 493 q 262 178 197 265 q 463 90 326 90 q 708 176 592 90 l 751 82 q 447 -14 617 -14 q 163 107 263 -14 q 63 414 63 228 q 98 637 63 529 q 198 830 133 744 q 364 967 263 915 q 588 1019 465 1019 q 861 913 769 1019 z "},"D":{"ha":943,"x_min":63,"x_max":888,"o":"m 888 603 q 856 382 888 488 q 765 190 825 276 q 606 51 706 103 q 382 0 507 0 l 63 0 l 186 915 l 186 1006 l 525 1006 q 797 894 706 1006 q 888 603 888 782 m 757 597 q 699 821 757 732 q 513 910 642 910 l 310 910 l 201 96 l 390 96 q 556 144 483 96 q 672 268 629 192 q 735 429 714 344 q 757 597 757 514 z "},"E":{"ha":694,"x_min":63,"x_max":756,"o":"m 756 1006 l 742 910 l 307 910 l 263 563 l 599 563 l 585 468 l 249 468 l 199 96 l 633 96 l 621 0 l 63 0 l 185 915 l 185 1006 l 756 1006 z "},"F":{"ha":650,"x_min":61,"x_max":711,"o":"m 711 1006 l 699 910 l 307 910 l 263 564 l 572 564 l 558 469 l 249 469 l 185 0 l 61 0 l 183 915 l 183 1006 l 711 1006 z "},"G":{"ha":926,"x_min":63,"x_max":889,"o":"m 889 904 l 810 822 q 703 900 757 876 q 574 924 649 924 q 402 876 478 924 q 283 751 326 828 q 217 585 239 674 q 194 406 194 497 q 256 178 194 267 q 449 90 317 90 q 624 160 551 90 q 710 333 696 229 l 721 424 l 486 424 l 499 518 l 860 518 q 800 0 825 282 l 733 0 l 707 104 q 415 -14 583 -14 q 151 99 240 -14 q 63 390 63 213 q 97 619 63 508 q 194 819 131 729 q 359 965 257 910 q 586 1019 461 1019 q 755 991 668 1019 q 889 904 842 963 z "},"H":{"ha":933,"x_min":61,"x_max":911,"o":"m 911 1006 l 775 0 l 650 0 l 714 475 l 250 475 l 186 0 l 61 0 l 185 915 l 185 1006 l 322 1006 l 264 569 l 728 569 l 786 1006 l 911 1006 z "},"I":{"ha":349,"x_min":65,"x_max":326,"o":"m 326 1006 l 190 0 l 65 0 l 189 915 l 189 1006 l 326 1006 z "},"J":{"ha":351,"x_min":-251,"x_max":331,"o":"m 331 1006 l 193 13 q 108 -233 171 -147 q -93 -318 44 -318 q -251 -274 -192 -318 l -196 -194 q -94 -229 -147 -229 q 72 24 38 -229 l 194 917 l 194 1006 l 331 1006 z "},"K":{"ha":775,"x_min":61,"x_max":831,"o":"m 831 1006 l 390 557 l 719 0 l 565 0 l 257 526 l 186 0 l 61 0 l 185 915 l 185 1006 l 322 1006 l 261 557 l 700 1006 l 831 1006 z "},"L":{"ha":654,"x_min":63,"x_max":604,"o":"m 604 96 l 590 0 l 63 0 l 186 915 l 186 1006 l 325 1006 l 203 96 l 604 96 z "},"M":{"ha":1096,"x_min":61,"x_max":1074,"o":"m 1074 1006 l 938 0 l 813 0 l 922 818 l 525 -3 l 451 -3 l 274 819 l 163 0 l 61 0 l 183 917 l 183 1006 l 356 1006 l 529 224 l 910 1006 l 1074 1006 z "},"N":{"ha":936,"x_min":63,"x_max":913,"o":"m 913 1006 l 776 -7 l 697 -7 l 279 850 l 165 0 l 63 0 l 186 915 l 186 1006 l 344 1006 l 708 254 l 811 1006 l 913 1006 z "},"O":{"ha":985,"x_min":63,"x_max":928,"o":"m 928 608 q 895 381 928 490 q 801 182 863 271 q 642 40 740 93 q 422 -14 543 -14 q 153 103 243 -14 q 63 401 63 219 q 82 579 63 492 q 143 747 101 667 q 243 887 185 826 q 385 983 301 947 q 565 1019 468 1019 q 838 906 747 1019 q 928 608 928 792 m 797 601 q 740 832 797 740 q 553 924 682 924 q 389 874 461 924 q 276 746 317 825 q 215 579 235 667 q 194 404 194 492 q 215 248 194 317 q 294 131 236 179 q 440 82 351 82 q 605 131 533 82 q 717 260 676 181 q 777 427 757 340 q 797 601 797 514 z "},"P":{"ha":749,"x_min":64,"x_max":756,"o":"m 756 754 q 653 495 756 593 q 388 397 551 397 l 243 397 l 190 0 l 64 0 l 188 915 l 188 1006 l 461 1006 q 675 946 594 1006 q 756 754 756 886 m 625 739 q 579 866 625 822 q 450 910 533 910 l 313 910 l 257 490 l 396 490 q 563 562 500 490 q 625 739 625 633 z "},"Q":{"ha":992,"x_min":63,"x_max":1506,"o":"m 1506 -243 q 1338 -293 1404 -278 q 1190 -308 1271 -308 q 978 -266 1097 -308 q 766 -172 860 -224 q 566 -72 672 -121 q 390 -15 460 -24 q 199 63 275 -1 q 92 212 122 128 q 63 399 63 296 q 94 621 63 513 q 187 819 126 729 q 346 965 247 910 q 565 1019 444 1019 q 838 904 747 1019 q 928 606 928 789 q 846 258 928 424 q 610 21 764 92 q 685 -14 657 3 q 1249 -219 1051 -219 q 1485 -178 1339 -219 l 1506 -243 m 797 597 q 740 831 797 738 q 553 924 682 924 q 389 874 461 924 q 276 744 317 824 q 215 576 235 664 q 194 401 194 489 q 207 281 194 336 q 247 179 219 226 q 323 105 274 132 q 440 78 372 78 q 605 127 533 78 q 717 256 676 176 q 777 423 757 336 q 797 597 797 510 z "},"R":{"ha":790,"x_min":61,"x_max":757,"o":"m 757 772 q 696 588 757 671 q 536 476 635 506 l 742 0 l 599 0 l 411 453 q 286 450 379 450 l 247 450 l 188 0 l 61 0 l 185 915 l 185 1006 l 485 1006 q 681 949 604 1006 q 757 772 757 892 m 626 763 q 578 872 626 835 q 453 910 529 910 l 310 910 l 261 544 l 363 544 q 555 597 483 544 q 626 763 626 650 z "},"S":{"ha":704,"x_min":17,"x_max":692,"o":"m 692 954 l 633 860 q 460 924 554 924 q 322 881 381 924 q 264 764 264 838 q 292 683 264 719 q 360 624 319 647 q 450 570 401 600 q 540 509 499 540 q 608 426 581 478 q 636 307 636 374 q 535 75 636 164 q 288 -14 433 -14 q 17 61 151 -14 l 75 165 q 183 100 140 118 q 293 82 226 82 q 441 144 376 82 q 506 289 506 207 q 467 390 506 347 q 375 463 429 433 q 267 526 321 493 q 174 613 213 558 q 136 743 136 668 q 233 947 136 874 q 469 1019 331 1019 q 692 954 594 1019 z "},"T":{"ha":714,"x_min":56,"x_max":775,"o":"m 775 1006 l 763 910 l 472 910 l 350 0 l 224 0 l 346 910 l 56 910 l 69 1006 l 775 1006 z "},"U":{"ha":886,"x_min":64,"x_max":865,"o":"m 865 1006 l 776 357 q 656 88 754 189 q 372 -14 558 -14 q 137 63 210 -14 q 64 267 64 140 q 69 339 64 289 l 147 917 l 147 1006 l 286 1006 l 196 338 q 192 278 192 304 q 239 135 192 188 q 389 82 286 82 q 586 156 514 82 q 675 358 658 229 l 763 1006 l 865 1006 z "},"V":{"ha":719,"x_min":61,"x_max":803,"o":"m 803 1006 l 335 -4 l 257 -4 l 61 1006 l 193 1006 l 336 226 l 696 1006 l 803 1006 z "},"W":{"ha":1104,"x_min":61,"x_max":1186,"o":"m 1186 1006 l 788 -4 l 686 -4 l 590 746 l 294 -4 l 193 -4 l 61 1006 l 192 1006 l 289 239 l 589 1006 l 686 1006 l 782 239 l 1083 1006 l 1186 1006 z "},"X":{"ha":757,"x_min":-46,"x_max":803,"o":"m 803 1006 l 461 540 l 697 0 l 553 0 l 371 414 l 71 0 l -46 0 l 328 517 l 115 1006 l 257 1006 l 418 639 l 685 1006 l 803 1006 z "},"Y":{"ha":664,"x_min":58,"x_max":747,"o":"m 747 1006 l 403 497 l 336 0 l 210 0 l 276 499 l 58 1006 l 201 1006 l 371 617 l 631 1006 l 747 1006 z "},"Z":{"ha":739,"x_min":-24,"x_max":758,"o":"m 758 1006 l 746 913 l 138 96 l 653 96 l 631 0 l -24 0 l -11 93 l 597 910 l 128 910 l 140 1006 l 758 1006 z "},"[":{"ha":461,"x_min":58,"x_max":501,"o":"m 501 1006 l 492 938 l 325 938 l 178 -112 l 344 -112 l 333 -181 l 58 -181 l 226 1006 l 501 1006 z "},"\\":{"ha":499,"x_min":7,"x_max":446,"o":"m 446 0 l 357 0 l 7 1006 l 100 1006 l 446 0 z "},"]":{"ha":454,"x_min":-14,"x_max":429,"o":"m 429 1006 l 261 -178 l -14 -178 l -3 -110 l 164 -110 l 311 939 l 143 939 l 154 1006 l 429 1006 z "},"^":{"ha":858,"x_min":78,"x_max":782,"o":"m 782 0 l 676 0 l 431 556 l 185 0 l 78 0 l 378 682 l 479 682 l 782 0 z "},"_":{"ha":642,"x_min":-29,"x_max":667,"o":"m 667 -101 l 654 -178 l -29 -178 l -17 -101 l 667 -101 z "},"`":{"ha":344,"x_min":69,"x_max":347,"o":"m 347 801 l 246 801 l 69 1006 l 233 1006 l 347 801 z "},"a":{"ha":731,"x_min":51,"x_max":694,"o":"m 694 17 q 590 -15 636 -15 q 512 18 542 -15 q 481 103 482 51 l 475 103 q 269 -18 396 -18 q 107 56 163 -18 q 51 247 51 131 q 78 403 51 324 q 151 548 104 482 q 267 656 197 614 q 417 699 338 699 q 568 633 517 699 l 597 688 l 658 688 l 581 160 q 578 131 578 140 q 624 75 578 75 q 679 86 646 75 l 694 17 m 531 560 q 421 613 485 613 q 285 547 343 613 q 204 399 228 481 q 181 242 181 317 q 206 120 181 172 q 292 68 232 68 q 399 122 353 68 q 472 252 446 176 q 511 426 497 328 l 531 560 z "},"b":{"ha":696,"x_min":51,"x_max":643,"o":"m 643 442 q 528 117 643 251 q 225 -18 414 -18 q 131 -1 181 -18 q 51 46 82 15 l 172 982 l 172 1061 l 294 1061 l 235 617 q 422 699 331 699 q 588 626 532 699 q 643 442 643 553 m 521 447 q 403 613 521 613 q 303 583 354 613 q 221 510 253 553 l 175 151 q 174 136 174 140 q 254 68 174 68 q 401 133 338 68 q 492 281 464 197 q 521 447 521 365 z "},"c":{"ha":585,"x_min":50,"x_max":597,"o":"m 597 628 l 528 551 q 388 613 467 613 q 267 557 318 613 q 193 431 215 501 q 171 292 171 360 q 209 142 171 206 q 325 78 247 78 q 408 92 372 78 q 493 139 444 106 l 532 50 q 418 -3 464 13 q 307 -18 372 -18 q 117 64 183 -18 q 50 274 50 146 q 149 573 50 447 q 413 699 249 699 q 597 628 518 699 z "},"d":{"ha":731,"x_min":50,"x_max":707,"o":"m 707 1061 l 578 144 q 576 128 576 132 q 622 75 576 75 q 647 78 633 75 q 669 83 661 81 l 678 86 l 693 17 q 589 -15 632 -15 q 510 17 540 -15 q 479 97 479 50 l 479 103 l 474 103 q 269 -18 389 -18 q 104 56 158 -18 q 50 244 50 131 q 93 450 50 347 q 223 626 136 553 q 415 699 310 699 q 539 644 490 699 l 586 986 l 586 1061 l 707 1061 m 524 532 l 526 561 q 418 613 485 613 q 284 545 342 613 q 202 396 226 478 q 178 240 178 314 q 203 120 178 171 q 292 69 229 69 q 367 92 333 69 q 425 158 401 114 q 465 242 449 201 q 494 347 482 282 q 511 444 506 411 q 524 532 517 476 z "},"e":{"ha":646,"x_min":51,"x_max":594,"o":"m 594 551 q 458 344 594 425 q 169 281 356 283 l 169 274 q 211 135 169 192 q 332 79 253 79 q 525 142 433 79 l 565 60 q 325 -18 456 -18 q 126 61 200 -18 q 51 267 51 140 q 153 567 51 435 q 417 699 254 699 q 544 663 494 699 q 594 551 594 626 m 478 542 q 456 594 478 576 q 399 613 435 613 q 251 530 317 613 q 176 361 185 447 q 382 407 307 361 q 449 467 419 431 q 478 542 478 504 z "},"f":{"ha":347,"x_min":-215,"x_max":635,"o":"m 635 1015 l 581 933 q 476 982 535 982 q 384 956 422 982 q 324 883 346 931 q 292 790 303 836 q 274 681 281 743 l 429 681 l 418 593 l 263 593 l 169 -85 q -60 -319 136 -319 q -215 -275 -146 -319 l -160 -196 q -112 -224 -129 -217 q -62 -231 -94 -231 q 61 -72 40 -231 l 151 593 l 53 593 l 64 681 l 164 681 q 183 799 172 747 q 217 903 194 850 q 272 990 240 956 q 354 1047 304 1025 q 468 1069 404 1069 q 635 1015 556 1069 z "},"g":{"ha":715,"x_min":25,"x_max":663,"o":"m 663 711 l 582 129 q 560 4 572 60 q 521 -115 547 -51 q 458 -220 494 -178 q 365 -291 422 -262 q 233 -319 307 -319 q 25 -257 129 -319 l 82 -169 q 221 -233 151 -233 q 471 103 408 -233 l 467 104 q 274 -18 397 -18 q 110 57 167 -18 q 54 244 54 132 q 98 454 54 351 q 231 628 142 557 q 432 699 319 699 q 560 668 494 699 l 663 711 m 536 586 q 435 613 489 613 q 292 549 353 613 q 207 403 232 485 q 182 240 182 321 q 209 119 182 171 q 296 68 236 68 q 514 438 458 68 l 536 586 z "},"h":{"ha":685,"x_min":54,"x_max":629,"o":"m 625 456 l 576 81 l 579 0 l 453 0 l 508 419 q 514 492 514 464 q 425 599 514 599 q 233 507 346 599 l 165 0 l 54 0 l 186 982 l 186 1061 l 308 1061 l 243 594 q 454 699 347 699 q 629 518 629 699 q 625 456 629 489 z "},"i":{"ha":317,"x_min":56,"x_max":315,"o":"m 315 928 q 288 864 315 892 q 224 836 261 836 q 173 856 193 836 q 153 906 153 876 q 181 969 153 940 q 244 999 208 999 q 295 978 275 999 q 315 928 315 957 m 258 681 l 178 81 l 178 0 l 56 0 l 136 601 l 136 681 l 258 681 z "},"j":{"ha":319,"x_min":-228,"x_max":318,"o":"m 318 928 q 291 863 318 892 q 226 835 264 835 q 175 856 194 835 q 156 906 156 876 q 182 969 156 942 q 246 997 208 997 q 298 977 278 997 q 318 928 318 957 m 263 681 l 158 -85 q -71 -319 126 -319 q -228 -275 -156 -319 l -172 -196 q -75 -231 -128 -231 q 49 -72 28 -231 l 142 601 l 142 681 l 263 681 z "},"k":{"ha":592,"x_min":54,"x_max":617,"o":"m 617 681 l 329 397 l 564 0 l 433 0 l 215 371 l 165 0 l 54 0 l 188 982 l 188 1061 l 310 1061 l 221 407 l 496 681 l 617 681 z "},"l":{"ha":317,"x_min":54,"x_max":310,"o":"m 310 1061 l 178 81 l 178 0 l 54 0 l 188 982 l 188 1061 l 310 1061 z "},"m":{"ha":1058,"x_min":57,"x_max":1003,"o":"m 999 457 l 949 81 l 949 0 l 828 0 l 883 421 q 889 490 889 465 q 799 599 889 599 q 617 506 725 599 q 613 457 617 483 l 553 0 l 442 0 l 497 421 q 503 493 503 465 q 414 599 503 599 q 235 507 347 599 l 167 0 l 57 0 l 122 499 q 126 558 126 531 q 122 622 126 592 q 111 667 117 653 l 106 681 l 228 694 q 240 594 240 657 q 444 699 357 699 q 610 585 572 699 q 829 699 736 699 q 1003 518 1003 699 q 999 457 1003 490 z "},"n":{"ha":686,"x_min":57,"x_max":631,"o":"m 626 457 l 576 81 l 576 0 l 454 0 l 511 421 q 518 496 518 481 q 428 599 518 599 q 236 507 342 599 l 168 0 l 57 0 l 122 486 q 128 558 128 521 q 122 625 128 594 q 111 668 117 656 l 106 681 l 228 694 q 240 594 238 660 q 458 699 357 699 q 631 518 631 699 q 626 457 631 490 z "},"o":{"ha":706,"x_min":51,"x_max":656,"o":"m 656 408 q 559 111 656 240 q 306 -18 463 -18 q 117 66 182 -18 q 51 274 51 150 q 91 477 51 382 q 212 635 131 572 q 400 699 293 699 q 590 615 525 699 q 656 408 656 532 m 538 407 q 502 551 538 490 q 390 613 467 613 q 265 555 318 613 q 191 425 213 497 q 169 281 169 353 q 206 133 169 199 q 315 68 242 68 q 417 101 372 68 q 486 188 461 135 q 524 297 511 240 q 538 407 538 354 z "},"p":{"ha":719,"x_min":18,"x_max":665,"o":"m 665 428 q 622 219 665 321 q 496 50 579 118 q 310 -18 413 -18 q 234 -3 272 -18 q 175 32 196 13 l 140 -235 l 140 -311 l 18 -311 l 119 463 q 128 563 128 529 q 108 681 128 621 l 231 696 q 242 600 242 632 l 242 589 q 446 699 317 699 q 609 622 553 699 q 665 428 665 544 m 536 436 q 510 560 536 507 q 418 613 483 613 q 201 247 251 613 q 193 178 197 222 q 186 122 189 135 q 243 83 207 99 q 314 68 279 68 q 476 186 417 68 q 536 436 536 304 z "},"q":{"ha":711,"x_min":50,"x_max":663,"o":"m 663 725 l 533 -232 l 533 -311 l 411 -311 l 468 93 q 269 -18 389 -18 q 104 56 158 -18 q 50 244 50 131 q 75 393 50 315 q 144 540 100 471 q 260 653 189 608 q 415 699 332 699 q 564 639 499 699 l 608 725 l 663 725 m 533 560 q 418 613 490 613 q 283 544 340 613 q 201 393 225 475 q 178 240 178 311 q 204 119 178 169 q 292 68 231 68 q 365 88 332 68 q 421 148 397 108 q 462 228 444 188 q 492 326 479 268 q 512 421 506 383 q 526 511 518 458 l 533 560 z "},"r":{"ha":454,"x_min":57,"x_max":488,"o":"m 488 697 l 443 575 q 232 454 331 575 l 172 0 l 57 0 l 121 497 q 125 563 125 531 q 101 682 125 640 l 229 697 q 243 589 243 654 l 243 571 q 351 661 286 625 q 488 697 417 697 z "},"s":{"ha":522,"x_min":8,"x_max":501,"o":"m 501 653 l 454 569 q 326 613 394 613 q 235 584 274 613 q 196 506 196 556 q 223 449 196 475 q 289 402 250 424 q 367 356 328 381 q 433 289 406 331 q 460 193 460 247 q 388 38 460 93 q 213 -18 315 -18 q 8 39 104 -18 l 68 124 q 208 68 135 68 q 304 97 264 68 q 344 181 344 126 q 317 245 344 217 q 252 295 290 274 q 175 340 214 317 q 109 403 136 364 q 82 492 82 442 q 156 646 82 593 q 333 699 229 699 q 501 653 425 699 z "},"t":{"ha":399,"x_min":44,"x_max":419,"o":"m 419 681 l 407 593 l 250 593 l 193 153 q 190 124 190 132 q 244 68 190 68 q 335 83 274 68 l 344 10 q 211 -18 271 -18 q 115 9 151 -18 q 79 113 79 36 l 83 161 l 140 593 l 44 593 l 57 681 l 153 681 l 181 876 l 304 876 l 263 681 l 419 681 z "},"u":{"ha":708,"x_min":56,"x_max":671,"o":"m 671 15 q 567 -17 610 -17 q 492 14 526 -17 q 457 101 457 44 l 451 101 q 233 -18 372 -18 q 99 31 143 -18 q 56 165 56 79 q 60 221 56 192 l 113 601 l 113 681 l 233 681 l 174 238 q 169 181 169 207 q 263 68 169 68 q 394 141 332 68 q 481 388 456 214 l 511 600 l 511 681 l 633 681 l 563 168 q 560 132 560 140 q 599 74 560 74 q 625 77 611 74 q 647 83 639 81 l 656 88 l 671 15 z "},"v":{"ha":581,"x_min":58,"x_max":626,"o":"m 626 681 l 300 -7 l 199 -7 l 58 681 l 175 681 l 279 163 l 522 681 l 626 681 z "},"w":{"ha":847,"x_min":58,"x_max":893,"o":"m 893 681 l 594 -7 l 514 -7 l 444 461 l 240 -7 l 160 -7 l 58 681 l 172 681 l 242 217 l 443 681 l 524 681 l 594 217 l 794 681 l 893 681 z "},"x":{"ha":539,"x_min":-50,"x_max":585,"o":"m 585 681 l 339 363 l 514 0 l 388 0 l 261 265 l 60 0 l -50 0 l 217 353 l 58 681 l 182 681 l 294 450 l 475 681 l 585 681 z "},"y":{"ha":569,"x_min":-211,"x_max":626,"o":"m 626 681 l 282 -71 q -64 -319 167 -319 q -211 -282 -147 -319 l -158 -199 q -57 -228 -96 -228 q 85 -181 21 -228 q 188 -42 149 -133 l 207 4 l 63 681 l 181 681 l 282 164 l 521 681 l 626 681 z "},"z":{"ha":603,"x_min":25,"x_max":588,"o":"m 588 615 l 175 88 l 531 88 l 517 0 l 25 0 l 25 67 l 435 593 l 126 593 l 139 681 l 588 681 l 588 615 z "},"{":{"ha":446,"x_min":86,"x_max":486,"o":"m 486 1014 l 476 949 q 378 921 404 949 q 342 821 351 893 l 310 592 q 197 411 289 443 q 263 290 263 382 q 258 231 263 264 l 226 1 q 222 -43 222 -24 q 246 -107 222 -89 q 325 -125 269 -125 l 315 -190 q 162 -150 207 -190 q 117 -24 117 -110 q 122 36 117 1 l 153 249 q 157 293 157 269 q 86 381 157 381 l 96 444 q 197 572 178 446 l 229 789 q 303 959 246 904 q 486 1014 361 1014 z "},"|":{"ha":328,"x_min":117,"x_max":211,"o":"m 211 -151 l 117 -151 l 117 1031 l 211 1031 l 211 -151 z "},"}":{"ha":446,"x_min":3,"x_max":406,"o":"m 168 1019 l 201 1019 q 372 850 372 1019 q 368 793 372 825 l 336 565 q 333 535 333 546 q 406 447 333 447 l 397 382 q 293 249 311 382 l 263 36 q 192 -133 246 -75 q 32 -190 138 -190 l 3 -190 l 11 -126 q 113 -102 86 -126 q 149 -3 139 -78 l 179 233 q 296 417 199 379 q 226 536 226 443 q 232 596 226 557 l 264 842 q 267 876 267 869 q 243 940 267 925 q 160 956 219 956 l 168 1019 z "},"~":{"ha":776,"x_min":61,"x_max":715,"o":"m 715 413 q 631 323 683 363 q 528 283 579 283 q 384 330 475 283 q 243 376 293 376 q 179 348 208 376 q 133 282 150 319 l 61 343 q 136 438 86 399 q 243 476 186 476 q 401 431 306 476 q 528 385 496 385 q 595 412 564 385 q 647 476 626 439 l 715 413 z "},"¡":{"ha":340,"x_min":28,"x_max":319,"o":"m 29 -246 l 156 393 l 236 381 l 185 -268 q 161 -310 183 -293 q 110 -326 139 -326 q 53 -308 78 -326 q 28 -260 28 -290 l 29 -246 m 228 514 q 163 541 189 514 q 136 607 136 568 q 163 672 136 644 q 226 699 189 699 q 292 672 265 699 q 319 607 319 646 q 292 541 319 568 q 228 514 265 514 z "},"¢":{"ha":585,"x_min":50,"x_max":597,"o":"m 597 631 l 528 551 q 388 613 464 613 q 244 532 301 613 q 175 353 188 451 q 171 292 171 324 q 211 142 171 208 q 325 76 251 76 q 408 90 372 76 q 493 139 443 104 l 532 49 q 422 -3 467 11 q 318 -18 378 -18 l 290 -169 l 182 -169 l 232 -8 q 98 93 146 17 q 50 274 50 169 q 137 559 50 436 q 369 700 224 682 l 400 854 l 508 854 l 458 697 q 597 631 542 681 z "},"£":{"ha":714,"x_min":22,"x_max":760,"o":"m 760 881 l 653 822 q 535 921 619 921 q 427 876 474 921 q 371 751 381 832 l 350 588 l 521 588 l 507 493 l 336 493 l 283 93 l 669 93 l 656 -3 l 22 -3 l 36 93 l 160 93 l 213 493 l 111 493 l 125 588 l 226 588 l 247 750 q 347 949 264 881 q 546 1017 431 1017 q 676 981 619 1017 q 760 881 732 944 z "},"¤":{"ha":744,"x_min":65,"x_max":674,"o":"m 593 303 l 674 225 q 606 158 650 203 q 531 232 554 206 q 369 174 461 174 q 207 232 281 174 q 184 209 199 224 q 157 182 169 194 q 133 158 144 169 l 65 226 l 143 304 q 100 461 100 376 q 144 618 100 544 l 65 697 q 133 765 100 731 l 208 689 q 369 747 281 747 q 529 690 460 747 l 606 765 l 674 697 l 593 618 q 639 461 639 543 q 593 303 639 378 m 369 258 q 489 315 439 258 q 539 461 539 372 q 490 604 539 546 q 369 663 442 663 q 249 604 297 663 q 201 461 201 546 q 251 316 201 374 q 369 258 301 258 z "},"¥":{"ha":650,"x_min":61,"x_max":647,"o":"m 647 681 l 457 436 l 586 436 l 576 372 l 406 372 l 378 336 l 371 288 l 567 288 l 557 224 l 361 224 l 331 0 l 224 0 l 254 224 l 61 224 l 71 288 l 264 288 l 269 338 l 251 372 l 81 372 l 90 436 l 217 436 l 89 681 l 207 681 l 347 422 l 544 681 l 647 681 z "},"¦":{"ha":331,"x_min":117,"x_max":211,"o":"m 211 546 l 117 546 l 117 1031 l 211 1031 l 211 546 m 211 -160 l 117 -160 l 117 324 l 211 324 l 211 -160 z "},"§":{"ha":631,"x_min":-21,"x_max":639,"o":"m 639 1053 l 604 961 q 538 979 558 979 q 421 829 421 979 q 447 448 421 747 q 474 110 474 149 q 460 9 474 57 q 406 -84 447 -39 q 297 -140 364 -129 q 219 -279 282 -235 q 78 -324 157 -324 q -21 -303 21 -324 l 13 -218 q 28 -223 14 -218 q 56 -231 42 -228 q 78 -235 71 -235 q 194 -83 194 -235 q 169 269 194 -29 q 143 636 143 568 q 318 890 143 869 q 392 1026 331 978 q 538 1074 453 1074 q 580 1069 554 1074 q 622 1058 606 1064 l 639 1053 m 364 101 q 342 439 364 169 q 315 790 319 708 q 250 646 250 763 q 274 337 250 607 q 301 -40 297 67 q 364 101 364 -10 z "},"¨":{"ha":386,"x_min":1,"x_max":386,"o":"m 386 867 q 363 811 386 835 q 307 788 339 788 q 251 811 275 788 q 228 867 228 835 q 251 922 228 899 q 307 946 275 946 q 363 923 340 946 q 386 867 386 900 m 160 867 q 136 811 160 835 q 81 788 113 788 q 25 811 49 788 q 1 867 1 835 q 25 922 1 899 q 81 946 49 946 q 137 923 114 946 q 160 867 160 900 z "},"©":{"ha":882,"x_min":61,"x_max":817,"o":"m 706 614 q 817 347 817 503 q 706 81 817 192 q 439 -31 594 -31 q 172 81 283 -31 q 61 347 61 192 q 172 614 61 503 q 439 725 283 725 q 706 614 594 725 m 667 118 q 763 347 763 214 q 667 576 763 481 q 439 671 572 671 q 210 576 306 671 q 115 347 115 481 q 210 119 115 214 q 439 24 306 24 q 667 118 572 24 m 556 225 l 592 165 q 442 122 515 122 q 292 187 347 122 q 238 349 238 251 q 296 512 238 449 q 453 575 354 575 q 585 529 514 575 l 543 476 q 442 514 499 514 q 353 465 385 514 q 322 356 322 415 q 354 240 322 293 q 446 186 386 186 q 556 225 497 186 z "},"ª":{"ha":504,"x_min":44,"x_max":463,"o":"m 463 557 q 396 536 421 536 q 343 558 364 536 q 319 614 322 579 q 186 535 269 535 q 81 583 117 535 q 44 707 44 632 q 113 908 44 814 q 282 1001 181 1001 q 381 960 349 1001 l 400 994 l 439 994 l 389 650 q 388 632 388 644 q 417 596 388 596 q 453 603 435 596 l 463 557 m 378 460 l 367 385 l 76 385 l 89 460 l 378 460 m 357 911 q 285 946 326 946 q 197 903 235 946 q 144 806 160 860 q 128 704 128 753 q 144 625 128 660 q 200 590 161 590 q 343 825 304 590 l 357 911 z "},"«":{"ha":631,"x_min":63,"x_max":586,"o":"m 586 669 l 393 460 l 528 251 l 444 239 l 268 461 l 500 685 l 586 669 m 378 669 l 188 460 l 321 251 l 239 239 l 63 461 l 294 685 l 378 669 z "},"¬":{"ha":886,"x_min":100,"x_max":785,"o":"m 785 124 l 700 124 l 700 388 l 100 388 l 100 471 l 785 471 l 785 124 z "},"­":{"ha":883,"x_min":100,"x_max":783,"o":"m 783 300 l 100 300 l 100 385 l 783 385 l 783 300 z "},"®":{"ha":638,"x_min":46,"x_max":597,"o":"m 321 563 q 126 642 206 563 q 46 838 46 722 q 126 1033 46 953 q 321 1113 206 1113 q 516 1032 435 1113 q 597 838 597 951 q 516 643 597 724 q 321 563 435 563 m 483 675 q 551 838 551 743 q 483 999 551 932 q 321 1067 415 1067 q 159 999 226 1067 q 92 838 92 932 q 159 676 92 743 q 321 608 226 608 q 483 675 415 608 m 476 683 l 393 683 l 303 817 l 278 817 l 278 683 l 208 683 l 208 996 l 331 996 q 439 907 439 996 q 375 828 439 851 l 476 683 m 278 868 l 311 868 q 369 910 369 868 q 321 944 369 944 l 278 944 l 278 868 z "},"¯":{"ha":383,"x_min":-11,"x_max":392,"o":"m 392 831 l -11 831 l -11 913 l 392 913 l 392 831 z "},"°":{"ha":475,"x_min":28,"x_max":447,"o":"m 447 824 q 386 676 447 736 q 238 615 325 615 q 89 676 150 615 q 28 824 28 736 q 89 971 28 910 q 236 1032 150 1032 q 385 971 324 1032 q 447 824 447 910 m 360 824 q 324 912 360 875 q 238 949 288 949 q 151 912 188 949 q 115 824 115 875 q 151 735 115 771 q 236 699 186 699 q 323 735 286 699 q 360 824 360 771 z "},"±":{"ha":878,"x_min":94,"x_max":788,"o":"m 788 349 l 489 349 l 489 111 l 392 111 l 392 349 l 94 349 l 94 444 l 392 444 l 392 681 l 489 681 l 489 444 l 788 444 l 788 349 m 788 0 l 94 0 l 94 94 l 788 94 l 788 0 z "},"²":{"ha":635,"x_min":53,"x_max":557,"o":"m 478 603 l 53 603 l 53 656 l 57 660 q 117 706 83 679 q 214 790 151 733 q 325 899 276 846 q 410 1013 374 951 q 447 1121 447 1075 q 423 1184 447 1160 q 354 1208 399 1208 q 272 1190 315 1208 q 203 1153 228 1172 l 179 1135 l 144 1200 q 176 1224 156 1210 q 259 1264 196 1239 q 386 1289 322 1289 q 516 1247 475 1289 q 557 1142 557 1204 q 521 1013 557 1081 q 433 890 485 944 q 331 791 382 836 q 243 722 279 746 l 207 697 l 515 697 l 478 603 z "},"³":{"ha":635,"x_min":60,"x_max":536,"o":"m 64 588 l 60 658 q 322 722 226 667 q 417 858 417 776 q 279 943 417 943 q 264 943 272 943 q 251 942 257 943 q 241 941 246 942 q 233 940 236 940 l 231 940 l 231 1006 q 432 1153 432 1046 q 347 1208 432 1208 q 258 1188 308 1208 q 172 1139 208 1167 l 138 1203 q 256 1265 188 1240 q 383 1289 325 1289 q 492 1264 447 1289 q 536 1183 536 1239 q 493 1078 536 1121 q 390 1011 450 1035 q 486 968 449 1004 q 524 875 524 932 q 503 789 524 832 q 435 700 482 746 q 292 624 388 654 q 64 588 196 593 z "},"´":{"ha":326,"x_min":63,"x_max":381,"o":"m 381 1006 l 165 801 l 63 801 l 201 1006 l 381 1006 z "},"µ":{"ha":811,"x_min":74,"x_max":731,"o":"m 710 681 l 632 97 q 647 82 632 82 q 677 86 660 82 q 706 94 694 90 l 717 99 l 731 28 q 592 -17 647 -17 q 540 8 557 -17 q 522 72 522 33 l 522 81 q 423 14 483 46 q 308 -18 363 -18 q 224 1 265 -18 l 188 -258 l 74 -258 l 189 601 l 183 681 l 311 681 l 254 263 q 249 196 249 218 q 339 85 249 85 q 449 118 393 85 q 531 176 506 151 l 588 601 l 582 681 l 710 681 z "},"¶":{"ha":758,"x_min":7,"x_max":726,"o":"m 726 1061 l 715 986 l 638 986 l 488 -87 q 428 -196 479 -150 q 315 -242 378 -242 q 289 -239 308 -242 q 140 -321 233 -321 q 45 -283 83 -321 q 7 -189 7 -246 q 60 -65 7 -118 q 185 -12 114 -12 l 174 -87 q 110 -115 138 -87 q 82 -178 82 -142 q 102 -226 82 -207 q 151 -246 122 -246 q 210 -222 185 -246 q 240 -167 236 -199 l 336 525 q 173 587 238 525 q 108 747 108 649 q 209 978 108 894 q 460 1061 310 1061 l 726 1061 m 563 986 l 478 986 l 317 -167 l 322 -167 q 382 -143 356 -167 q 413 -87 408 -119 l 563 986 z "},"·":{"ha":396,"x_min":114,"x_max":297,"o":"m 206 263 q 140 290 167 263 q 114 356 114 317 q 140 420 114 393 q 204 447 167 447 q 270 421 243 447 q 297 356 297 394 q 270 290 297 317 q 206 263 243 263 z "},"¸":{"ha":318,"x_min":90,"x_max":290,"o":"m 290 -162 q 214 -269 290 -232 q 100 -303 174 -290 l 90 -258 q 121 -250 103 -256 q 165 -221 139 -244 q 190 -165 190 -197 q 125 -99 190 -121 l 189 11 l 251 11 l 210 -64 q 290 -162 290 -89 z "},"¹":{"ha":635,"x_min":89,"x_max":501,"o":"m 490 603 l 89 603 l 100 685 l 264 685 l 328 1164 l 161 1115 q 154 1152 160 1128 q 147 1183 149 1176 q 383 1275 258 1221 l 449 1275 l 369 685 l 501 685 l 490 603 z "},"º":{"ha":493,"x_min":46,"x_max":447,"o":"m 447 808 q 384 617 447 701 q 215 532 321 532 q 90 587 133 532 q 46 725 46 642 q 110 917 46 831 q 278 1003 175 1003 q 403 947 360 1003 q 447 808 447 892 m 353 460 l 340 385 l 51 385 l 63 460 l 353 460 m 363 804 q 341 897 363 858 q 269 936 319 936 q 167 871 204 936 q 131 735 131 806 q 153 640 131 681 q 224 599 175 599 q 326 665 290 599 q 363 804 363 731 z "},"»":{"ha":631,"x_min":63,"x_max":586,"o":"m 586 463 l 353 239 l 269 254 l 461 464 l 326 674 l 410 685 l 586 463 m 381 463 l 147 239 l 63 254 l 256 464 l 119 674 l 204 685 l 381 463 z "},"¼":{"ha":1282,"x_min":60,"x_max":1222,"o":"m 444 -31 l 364 -31 q 914 1046 853 924 l 997 1046 q 823 706 935 924 q 619 308 711 489 q 444 -31 526 128 m 461 344 l 60 344 l 71 426 l 233 426 l 299 906 l 132 857 l 118 925 q 353 1017 249 969 l 418 1017 l 339 426 l 471 426 l 461 344 m 1092 0 l 986 0 l 1007 153 l 711 153 l 711 208 q 909 458 782 296 q 1076 671 1036 619 l 1182 671 l 1124 235 l 1222 235 l 1189 153 l 1113 153 l 1092 0 m 1018 235 l 1040 401 l 1064 553 q 1011 474 1043 519 q 958 401 979 429 q 888 312 936 372 q 828 235 840 251 l 1018 235 z "},"½":{"ha":1360,"x_min":60,"x_max":1300,"o":"m 460 344 l 60 344 l 69 426 l 233 426 l 297 906 l 132 857 l 117 925 q 351 1017 236 965 l 418 1017 l 339 426 l 471 426 l 460 344 m 444 -31 l 363 -31 q 913 1046 851 924 l 996 1046 q 697 463 890 840 q 444 -31 504 86 m 1217 0 l 790 0 l 790 53 q 821 75 793 54 q 924 162 871 114 q 1040 274 978 210 q 1143 402 1103 338 q 1183 514 1183 467 q 1159 576 1183 553 q 1092 599 1135 599 q 1015 583 1056 599 q 953 554 975 568 q 918 529 932 540 l 883 596 q 1128 686 997 686 q 1258 644 1215 686 q 1300 538 1300 603 q 1256 394 1300 469 q 1145 256 1213 319 q 1035 158 1078 193 q 957 100 992 124 l 1254 100 l 1217 0 z "},"¾":{"ha":1278,"x_min":60,"x_max":1218,"o":"m 64 328 l 60 399 q 321 461 226 407 q 415 599 415 515 q 278 683 415 683 q 264 683 271 683 q 251 683 257 683 q 241 681 246 682 q 233 681 236 681 l 231 681 l 231 746 q 428 893 428 786 q 347 949 428 949 q 258 928 307 949 q 172 879 208 907 q 139 943 151 915 q 257 1005 189 981 q 383 1029 325 1029 q 492 1003 447 1029 q 538 921 538 978 q 493 817 538 860 q 388 751 449 775 q 485 708 447 743 q 524 617 524 674 q 513 549 524 583 q 469 476 501 515 q 389 407 438 438 q 256 354 340 376 q 64 328 172 332 m 1088 0 l 982 0 l 1003 153 l 707 153 l 707 208 l 1071 671 l 1178 671 l 1119 235 l 1218 235 q 1185 153 1197 188 l 1108 153 l 1088 0 m 1014 235 l 1036 401 q 1060 553 1039 419 q 822 235 1004 464 l 1014 235 m 440 -31 l 358 -31 l 908 1046 l 990 1046 l 440 -31 z "},"¿":{"ha":531,"x_min":49,"x_max":535,"o":"m 504 346 q 469 232 504 276 q 383 167 433 188 q 281 128 332 146 q 195 77 231 110 q 160 -10 160 44 q 192 -74 160 -50 q 265 -97 224 -97 q 371 -76 335 -97 l 394 -169 q 269 -187 342 -187 q 110 -135 171 -187 q 49 17 49 -82 q 74 126 49 81 q 139 192 100 171 q 222 232 178 214 q 306 261 267 250 q 370 295 344 272 q 396 351 396 318 q 344 426 396 404 q 228 450 292 449 l 254 543 q 432 488 360 533 q 504 346 504 442 m 443 660 q 378 687 404 660 q 351 753 351 714 q 378 817 351 790 q 442 844 404 844 q 508 818 481 844 q 535 753 535 792 q 508 687 535 714 q 443 660 481 660 z "},"À":{"ha":840,"x_min":-8,"x_max":779,"o":"m 578 1060 l 476 1060 l 300 1264 l 464 1264 l 578 1060 m 779 0 l 644 0 l 579 346 l 264 346 l 104 0 l -8 0 l 461 1006 l 582 1006 l 779 0 m 561 439 l 488 836 l 307 439 l 561 439 z "},"Á":{"ha":840,"x_min":-8,"x_max":779,"o":"m 775 1265 l 560 1061 l 457 1061 l 596 1265 l 775 1265 m 779 0 l 644 0 l 579 346 l 264 346 l 104 0 l -8 0 l 461 1006 l 582 1006 l 779 0 m 561 439 l 488 836 l 307 439 l 561 439 z "},"Â":{"ha":840,"x_min":-8,"x_max":779,"o":"m 714 1060 l 624 1060 l 535 1169 l 419 1060 l 329 1060 l 493 1268 l 603 1268 l 714 1060 m 779 0 l 644 0 l 579 346 l 264 346 l 104 0 l -8 0 l 461 1006 l 582 1006 l 779 0 m 561 439 l 488 836 l 307 439 l 561 439 z "},"Ã":{"ha":840,"x_min":-8,"x_max":779,"o":"m 735 1151 q 730 1140 733 1147 q 715 1116 726 1133 q 688 1085 703 1099 q 650 1061 674 1072 q 600 1050 626 1050 q 505 1076 561 1050 q 417 1103 449 1103 q 343 1065 381 1103 l 308 1093 q 313 1105 310 1097 q 330 1131 317 1113 q 358 1163 343 1149 q 400 1188 374 1176 q 456 1200 426 1200 q 549 1174 494 1200 q 626 1147 603 1147 q 703 1186 664 1147 l 735 1151 m 779 0 l 644 0 l 579 346 l 264 346 l 104 0 l -8 0 l 461 1006 l 582 1006 l 779 0 m 561 439 l 488 836 l 307 439 l 561 439 z "},"Ä":{"ha":840,"x_min":-8,"x_max":779,"o":"m 718 1132 q 694 1076 718 1100 q 639 1053 671 1053 q 583 1076 607 1053 q 560 1132 560 1100 q 583 1188 560 1164 q 639 1211 607 1211 q 695 1188 672 1211 q 718 1132 718 1165 m 492 1132 q 468 1076 492 1100 q 413 1053 444 1053 q 357 1076 381 1053 q 333 1132 333 1100 q 357 1188 333 1164 q 413 1211 381 1211 q 469 1188 446 1211 q 492 1132 492 1165 m 779 0 l 644 0 l 579 346 l 264 346 l 104 0 l -8 0 l 461 1006 l 582 1006 l 779 0 m 561 439 l 488 836 l 307 439 l 561 439 z "},"Å":{"ha":840,"x_min":-8,"x_max":779,"o":"m 626 1214 q 667 1117 667 1174 q 626 1019 667 1060 q 528 979 585 979 q 431 1019 471 979 q 390 1117 390 1060 q 431 1215 390 1174 q 529 1256 472 1256 q 626 1214 586 1256 m 528 1050 q 575 1069 556 1050 q 594 1117 594 1089 q 574 1164 594 1144 q 528 1183 554 1183 q 481 1164 501 1183 q 461 1117 461 1144 q 481 1069 461 1089 q 528 1050 501 1050 m 779 0 l 644 0 l 579 346 l 264 346 l 104 0 l -8 0 l 461 1006 l 582 1006 l 779 0 m 561 439 l 488 836 l 307 439 l 561 439 z "},"Æ":{"ha":1139,"x_min":-36,"x_max":1200,"o":"m 1200 1006 l 1186 910 l 779 910 l 735 564 l 1069 564 l 1056 469 l 719 469 l 671 96 l 1081 96 l 1067 0 l 533 0 l 579 343 l 303 343 l 79 0 l -36 0 l 556 917 l 549 1006 l 1200 1006 m 651 885 l 367 442 l 593 442 l 651 885 z "},"Ç":{"ha":813,"x_min":63,"x_max":861,"o":"m 506 -162 q 429 -269 506 -232 q 315 -303 389 -290 l 306 -258 q 336 -250 318 -256 q 380 -221 354 -244 q 406 -165 406 -197 q 340 -99 406 -121 l 404 11 l 467 11 l 425 -64 q 506 -162 506 -89 m 861 913 l 783 832 q 574 924 704 924 q 406 875 481 924 q 287 749 331 826 q 220 582 243 671 q 197 406 197 493 q 262 178 197 265 q 463 90 326 90 q 708 176 592 90 l 751 82 q 447 -14 617 -14 q 163 107 263 -14 q 63 414 63 228 q 98 637 63 529 q 198 830 133 744 q 364 967 263 915 q 588 1019 465 1019 q 861 913 769 1019 z "},"È":{"ha":694,"x_min":63,"x_max":756,"o":"m 551 1060 l 450 1060 l 274 1264 l 438 1264 l 551 1060 m 756 1006 l 742 910 l 307 910 l 263 563 l 599 563 l 585 468 l 249 468 l 199 96 l 633 96 l 621 0 l 63 0 l 185 915 l 185 1006 l 756 1006 z "},"É":{"ha":694,"x_min":63,"x_max":756,"o":"m 743 1265 l 528 1061 l 425 1061 l 564 1265 l 743 1265 m 756 1006 l 742 910 l 307 910 l 263 563 l 599 563 l 585 468 l 249 468 l 199 96 l 633 96 l 621 0 l 63 0 l 185 915 l 185 1006 l 756 1006 z "},"Ê":{"ha":694,"x_min":63,"x_max":756,"o":"m 682 1060 l 592 1060 l 503 1169 l 388 1060 l 297 1060 l 461 1268 l 571 1268 l 682 1060 m 756 1006 l 742 910 l 307 910 l 263 563 l 599 563 l 585 468 l 249 468 l 199 96 l 633 96 l 621 0 l 63 0 l 185 915 l 185 1006 l 756 1006 z "},"Ë":{"ha":694,"x_min":63,"x_max":756,"o":"m 685 1132 q 661 1076 685 1100 q 606 1053 638 1053 q 550 1076 574 1053 q 526 1132 526 1100 q 550 1188 526 1164 q 606 1211 574 1211 q 662 1188 639 1211 q 685 1132 685 1165 m 458 1132 q 435 1076 458 1100 q 379 1053 411 1053 q 324 1076 347 1053 q 300 1132 300 1100 q 324 1188 300 1164 q 379 1211 347 1211 q 435 1188 413 1211 q 458 1132 458 1165 m 756 1006 l 742 910 l 307 910 l 263 563 l 599 563 l 585 468 l 249 468 l 199 96 l 633 96 l 621 0 l 63 0 l 185 915 l 185 1006 l 756 1006 z "},"Ì":{"ha":349,"x_min":50,"x_max":328,"o":"m 328 1061 l 226 1061 l 50 1265 l 214 1265 l 328 1061 m 326 1006 l 190 0 l 65 0 l 189 915 l 189 1006 l 326 1006 z "},"Í":{"ha":349,"x_min":65,"x_max":511,"o":"m 511 1265 l 296 1061 l 193 1061 l 332 1265 l 511 1265 m 326 1006 l 190 0 l 65 0 l 189 915 l 189 1006 l 326 1006 z "},"Î":{"ha":349,"x_min":65,"x_max":454,"o":"m 454 1060 l 364 1060 l 275 1169 l 160 1060 l 69 1060 l 233 1268 l 343 1268 l 454 1060 m 326 1006 l 190 0 l 65 0 l 189 915 l 189 1006 l 326 1006 z "},"Ï":{"ha":349,"x_min":65,"x_max":457,"o":"m 457 1133 q 433 1078 457 1101 q 378 1054 410 1054 q 322 1078 346 1054 q 299 1133 299 1101 q 322 1189 299 1165 q 378 1213 346 1213 q 434 1190 411 1213 q 457 1133 457 1167 m 231 1133 q 207 1078 231 1101 q 151 1054 183 1054 q 96 1078 119 1054 q 72 1133 72 1101 q 96 1189 72 1165 q 151 1213 119 1213 q 208 1190 185 1213 q 231 1133 231 1167 m 326 1006 l 190 0 l 65 0 l 189 915 l 189 1006 l 326 1006 z "},"Ð":{"ha":943,"x_min":17,"x_max":888,"o":"m 17 469 l 31 558 l 138 558 l 186 915 l 186 1006 l 525 1006 q 797 894 706 1006 q 888 603 888 782 q 856 382 888 488 q 765 190 825 276 q 606 51 706 103 q 382 0 507 0 l 63 0 l 125 469 l 17 469 m 757 597 q 699 821 757 732 q 513 910 642 910 l 310 910 l 263 558 l 469 558 l 456 469 l 251 469 l 201 96 l 390 96 q 556 144 483 96 q 672 268 629 192 q 735 429 714 344 q 757 597 757 514 z "},"Ñ":{"ha":936,"x_min":63,"x_max":913,"o":"m 789 1153 q 784 1142 788 1149 q 769 1117 781 1135 q 742 1087 757 1100 q 704 1063 728 1074 q 654 1051 681 1051 q 559 1078 615 1051 q 471 1104 503 1104 q 397 1067 435 1104 l 363 1094 q 367 1106 364 1099 q 384 1132 371 1114 q 413 1164 397 1150 q 454 1190 428 1178 q 510 1201 481 1201 q 603 1175 549 1201 q 681 1149 657 1149 q 757 1188 718 1149 l 789 1153 m 913 1006 l 776 -7 l 697 -7 l 279 850 l 165 0 l 63 0 l 186 915 l 186 1006 l 344 1006 l 708 254 l 811 1006 l 913 1006 z "},"Ò":{"ha":983,"x_min":63,"x_max":928,"o":"m 644 1060 l 543 1060 l 367 1264 l 531 1264 l 644 1060 m 928 608 q 895 381 928 490 q 801 182 863 271 q 642 40 740 93 q 422 -14 543 -14 q 153 103 243 -14 q 63 401 63 219 q 82 579 63 492 q 143 747 101 667 q 243 887 185 826 q 385 983 301 947 q 565 1019 468 1019 q 838 906 747 1019 q 928 608 928 792 m 797 601 q 740 832 797 740 q 553 924 682 924 q 389 874 461 924 q 276 746 317 825 q 215 579 235 667 q 194 404 194 492 q 215 248 194 317 q 294 131 236 179 q 440 82 351 82 q 605 131 533 82 q 717 260 676 181 q 777 427 757 340 q 797 601 797 514 z "},"Ó":{"ha":983,"x_min":63,"x_max":928,"o":"m 839 1264 l 624 1060 l 521 1060 l 660 1264 l 839 1264 m 928 608 q 895 381 928 490 q 801 182 863 271 q 642 40 740 93 q 422 -14 543 -14 q 153 103 243 -14 q 63 401 63 219 q 82 579 63 492 q 143 747 101 667 q 243 887 185 826 q 385 983 301 947 q 565 1019 468 1019 q 838 906 747 1019 q 928 608 928 792 m 797 601 q 740 832 797 740 q 553 924 682 924 q 389 874 461 924 q 276 746 317 825 q 215 579 235 667 q 194 404 194 492 q 215 248 194 317 q 294 131 236 179 q 440 82 351 82 q 605 131 533 82 q 717 260 676 181 q 777 427 757 340 q 797 601 797 514 z "},"Ô":{"ha":983,"x_min":63,"x_max":928,"o":"m 776 1060 l 686 1060 l 597 1169 l 482 1060 l 392 1060 l 556 1268 l 665 1268 l 776 1060 m 928 608 q 895 381 928 490 q 801 182 863 271 q 642 40 740 93 q 422 -14 543 -14 q 153 103 243 -14 q 63 401 63 219 q 82 579 63 492 q 143 747 101 667 q 243 887 185 826 q 385 983 301 947 q 565 1019 468 1019 q 838 906 747 1019 q 928 608 928 792 m 797 601 q 740 832 797 740 q 553 924 682 924 q 389 874 461 924 q 276 746 317 825 q 215 579 235 667 q 194 404 194 492 q 215 248 194 317 q 294 131 236 179 q 440 82 351 82 q 605 131 533 82 q 717 260 676 181 q 777 427 757 340 q 797 601 797 514 z "},"Õ":{"ha":983,"x_min":63,"x_max":928,"o":"m 799 1154 q 794 1143 797 1150 q 778 1119 790 1136 q 752 1088 767 1101 q 714 1064 738 1075 q 664 1053 690 1053 q 569 1079 625 1053 q 481 1106 513 1106 q 407 1068 444 1106 l 372 1096 q 377 1108 374 1100 q 394 1133 381 1115 q 422 1165 407 1151 q 464 1191 438 1179 q 519 1203 490 1203 q 613 1176 558 1203 q 690 1150 667 1150 q 767 1189 728 1150 l 799 1154 m 928 608 q 895 381 928 490 q 801 182 863 271 q 642 40 740 93 q 422 -14 543 -14 q 153 103 243 -14 q 63 401 63 219 q 82 579 63 492 q 143 747 101 667 q 243 887 185 826 q 385 983 301 947 q 565 1019 468 1019 q 838 906 747 1019 q 928 608 928 792 m 797 601 q 740 832 797 740 q 553 924 682 924 q 389 874 461 924 q 276 746 317 825 q 215 579 235 667 q 194 404 194 492 q 215 248 194 317 q 294 131 236 179 q 440 82 351 82 q 605 131 533 82 q 717 260 676 181 q 777 427 757 340 q 797 601 797 514 z "},"Ö":{"ha":983,"x_min":63,"x_max":928,"o":"m 767 1133 q 743 1078 767 1101 q 688 1054 719 1054 q 632 1078 656 1054 q 608 1133 608 1101 q 632 1189 608 1165 q 688 1213 656 1213 q 744 1190 721 1213 q 767 1133 767 1167 m 540 1133 q 517 1078 540 1101 q 461 1054 493 1054 q 406 1078 429 1054 q 382 1133 382 1101 q 406 1189 382 1165 q 461 1213 429 1213 q 517 1190 494 1213 q 540 1133 540 1167 m 928 608 q 895 381 928 490 q 801 182 863 271 q 642 40 740 93 q 422 -14 543 -14 q 153 103 243 -14 q 63 401 63 219 q 82 579 63 492 q 143 747 101 667 q 243 887 185 826 q 385 983 301 947 q 565 1019 468 1019 q 838 906 747 1019 q 928 608 928 792 m 797 601 q 740 832 797 740 q 553 924 682 924 q 389 874 461 924 q 276 746 317 825 q 215 579 235 667 q 194 404 194 492 q 215 248 194 317 q 294 131 236 179 q 440 82 351 82 q 605 131 533 82 q 717 260 676 181 q 777 427 757 340 q 797 601 797 514 z "},"×":{"ha":742,"x_min":99,"x_max":643,"o":"m 643 131 l 582 69 l 371 281 l 160 69 l 99 131 l 311 342 l 99 553 l 160 614 l 371 403 l 582 614 l 643 553 l 431 342 l 643 131 z "},"Ø":{"ha":1024,"x_min":53,"x_max":946,"o":"m 946 606 q 913 383 946 492 q 819 184 881 275 q 659 38 758 93 q 439 -18 560 -18 q 217 54 304 -18 l 117 -78 l 53 -32 l 163 110 q 79 392 79 217 q 98 569 79 481 q 158 738 117 657 q 256 881 199 819 q 397 981 314 943 q 578 1018 481 1018 q 799 954 707 1018 l 878 1058 l 944 1015 l 856 899 q 946 606 946 790 m 728 863 q 569 922 667 922 q 404 872 476 922 q 292 740 332 821 q 231 570 251 658 q 211 394 211 482 q 242 219 211 292 l 728 863 m 815 601 q 778 793 815 713 l 286 147 q 457 76 351 76 q 622 126 550 76 q 735 257 694 176 q 795 426 775 338 q 815 601 815 514 z "},"Ù":{"ha":886,"x_min":64,"x_max":865,"o":"m 596 1060 l 494 1060 l 318 1264 l 482 1264 l 596 1060 m 865 1006 l 776 357 q 656 88 754 189 q 372 -14 558 -14 q 137 63 210 -14 q 64 267 64 140 q 69 339 64 289 l 147 917 l 147 1006 l 286 1006 l 196 338 q 192 278 192 304 q 239 135 192 188 q 389 82 286 82 q 586 156 514 82 q 675 358 658 229 l 763 1006 l 865 1006 z "},"Ú":{"ha":886,"x_min":64,"x_max":865,"o":"m 801 1264 l 586 1060 l 483 1060 l 622 1264 l 801 1264 m 865 1006 l 776 357 q 656 88 754 189 q 372 -14 558 -14 q 137 63 210 -14 q 64 267 64 140 q 69 339 64 289 l 147 917 l 147 1006 l 286 1006 l 196 338 q 192 278 192 304 q 239 135 192 188 q 389 82 286 82 q 586 156 514 82 q 675 358 658 229 l 763 1006 l 865 1006 z "},"Û":{"ha":886,"x_min":64,"x_max":865,"o":"m 721 1060 l 631 1060 l 542 1169 l 426 1060 l 336 1060 l 500 1268 l 610 1268 l 721 1060 m 865 1006 l 776 357 q 656 88 754 189 q 372 -14 558 -14 q 137 63 210 -14 q 64 267 64 140 q 69 339 64 289 l 147 917 l 147 1006 l 286 1006 l 196 338 q 192 278 192 304 q 239 135 192 188 q 389 82 286 82 q 586 156 514 82 q 675 358 658 229 l 763 1006 l 865 1006 z "},"Ü":{"ha":886,"x_min":64,"x_max":865,"o":"m 724 1133 q 700 1078 724 1101 q 644 1054 676 1054 q 589 1078 613 1054 q 565 1133 565 1101 q 589 1189 565 1165 q 644 1213 613 1213 q 701 1190 678 1213 q 724 1133 724 1167 m 497 1133 q 474 1078 497 1101 q 418 1054 450 1054 q 363 1078 386 1054 q 339 1133 339 1101 q 363 1189 339 1165 q 418 1213 386 1213 q 474 1190 451 1213 q 497 1133 497 1167 m 865 1006 l 776 357 q 656 88 754 189 q 372 -14 558 -14 q 137 63 210 -14 q 64 267 64 140 q 69 339 64 289 l 147 917 l 147 1006 l 286 1006 l 196 338 q 192 278 192 304 q 239 135 192 188 q 389 82 286 82 q 586 156 514 82 q 675 358 658 229 l 763 1006 l 865 1006 z "},"Ý":{"ha":663,"x_min":58,"x_max":747,"o":"m 683 1264 l 468 1060 l 365 1060 l 504 1264 l 683 1264 m 747 1006 l 403 497 l 336 0 l 210 0 l 276 499 l 58 1006 l 201 1006 l 371 617 l 631 1006 l 747 1006 z "},"Þ":{"ha":749,"x_min":64,"x_max":735,"o":"m 328 1006 l 307 847 l 440 847 q 654 788 574 847 q 735 596 735 728 q 633 337 735 435 q 367 239 531 239 l 222 239 l 190 0 l 64 0 l 188 915 l 188 1006 l 328 1006 m 604 581 q 558 708 604 664 q 429 751 513 751 l 292 751 l 236 332 l 375 332 q 542 403 479 332 q 604 581 604 475 z "},"ß":{"ha":751,"x_min":-215,"x_max":679,"o":"m 679 251 q 598 53 679 124 q 389 -18 517 -18 q 253 11 313 -18 l 286 92 q 390 72 340 72 q 511 120 464 72 q 558 243 558 168 q 535 321 558 285 q 480 383 513 357 q 415 433 447 408 q 359 486 382 457 q 336 546 336 515 q 408 633 336 588 q 449 660 426 644 q 556 828 556 731 q 532 899 556 872 q 465 925 508 925 q 333 853 379 925 q 274 678 288 781 l 169 -85 q -60 -319 138 -319 q -215 -275 -146 -319 l -160 -196 q -112 -224 -129 -218 q -62 -231 -96 -231 q 61 -72 40 -231 l 151 593 l 51 593 l 63 681 l 163 681 q 259 923 183 828 q 475 1018 335 1018 q 617 969 561 1018 q 672 833 672 919 q 553 621 672 693 q 472 578 551 621 q 439 551 439 563 q 474 515 439 538 q 510 492 482 510 q 556 463 539 474 q 679 251 679 375 z "},"à":{"ha":731,"x_min":51,"x_max":694,"o":"m 694 17 q 590 -15 636 -15 q 512 18 542 -15 q 481 103 482 51 l 475 103 q 269 -18 396 -18 q 107 56 163 -18 q 51 247 51 131 q 78 403 51 324 q 151 548 104 482 q 267 656 197 614 q 417 699 338 699 q 568 633 517 699 l 597 688 l 658 688 l 581 160 q 578 131 578 140 q 624 75 578 75 q 679 86 646 75 l 694 17 m 531 560 q 421 613 485 613 q 285 547 343 613 q 204 399 228 481 q 181 242 181 317 q 206 120 181 172 q 292 68 232 68 q 399 122 353 68 q 472 252 446 176 q 511 426 497 328 l 531 560 m 504 801 l 403 801 l 226 1006 l 390 1006 l 504 801 z "},"á":{"ha":731,"x_min":51,"x_max":696,"o":"m 696 1006 l 481 801 l 378 801 l 517 1006 l 696 1006 m 694 17 q 590 -15 636 -15 q 512 18 542 -15 q 481 103 482 51 l 475 103 q 269 -18 396 -18 q 107 56 163 -18 q 51 247 51 131 q 78 403 51 324 q 151 548 104 482 q 267 656 197 614 q 417 699 338 699 q 568 633 517 699 l 597 688 l 658 688 l 581 160 q 578 131 578 140 q 624 75 578 75 q 679 86 646 75 l 694 17 m 531 560 q 421 613 485 613 q 285 547 343 613 q 204 399 228 481 q 181 242 181 317 q 206 120 181 172 q 292 68 232 68 q 399 122 353 68 q 472 252 446 176 q 511 426 497 328 l 531 560 z "},"â":{"ha":731,"x_min":51,"x_max":694,"o":"m 636 797 l 546 797 l 457 907 l 342 797 l 251 797 l 415 1006 l 525 1006 l 636 797 m 694 17 q 590 -15 636 -15 q 512 18 542 -15 q 481 103 482 51 l 475 103 q 269 -18 396 -18 q 107 56 163 -18 q 51 247 51 131 q 78 403 51 324 q 151 548 104 482 q 267 656 197 614 q 417 699 338 699 q 568 633 517 699 l 597 688 l 658 688 l 581 160 q 578 131 578 140 q 624 75 578 75 q 679 86 646 75 l 694 17 m 531 560 q 421 613 485 613 q 285 547 343 613 q 204 399 228 481 q 181 242 181 317 q 206 120 181 172 q 292 68 232 68 q 399 122 353 68 q 472 252 446 176 q 511 426 497 328 l 531 560 z "},"ã":{"ha":731,"x_min":51,"x_max":694,"o":"m 657 956 q 652 944 656 951 q 637 920 649 938 q 610 890 625 903 q 572 865 596 876 q 522 854 549 854 q 427 881 483 854 q 339 907 371 907 q 265 869 303 907 l 231 897 q 235 909 232 901 q 252 935 239 917 q 281 967 265 953 q 322 992 296 981 q 378 1004 349 1004 q 471 978 417 1004 q 549 951 525 951 q 625 990 586 951 l 657 956 m 694 17 q 590 -15 636 -15 q 512 18 542 -15 q 481 103 482 51 l 475 103 q 269 -18 396 -18 q 107 56 163 -18 q 51 247 51 131 q 78 403 51 324 q 151 548 104 482 q 267 656 197 614 q 417 699 338 699 q 568 633 517 699 l 597 688 l 658 688 l 581 160 q 578 131 578 140 q 624 75 578 75 q 679 86 646 75 l 694 17 m 531 560 q 421 613 485 613 q 285 547 343 613 q 204 399 228 481 q 181 242 181 317 q 206 120 181 172 q 292 68 232 68 q 399 122 353 68 q 472 252 446 176 q 511 426 497 328 l 531 560 z "},"ä":{"ha":731,"x_min":51,"x_max":694,"o":"m 650 932 q 626 876 650 900 q 571 853 603 853 q 515 876 539 853 q 492 932 492 900 q 515 988 492 964 q 571 1011 539 1011 q 627 988 604 1011 q 650 932 650 965 m 424 932 q 400 876 424 900 q 344 853 376 853 q 289 876 313 853 q 265 932 265 900 q 289 988 265 964 q 344 1011 313 1011 q 401 988 378 1011 q 424 932 424 965 m 694 17 q 590 -15 636 -15 q 512 18 542 -15 q 481 103 482 51 l 475 103 q 269 -18 396 -18 q 107 56 163 -18 q 51 247 51 131 q 78 403 51 324 q 151 548 104 482 q 267 656 197 614 q 417 699 338 699 q 568 633 517 699 l 597 688 l 658 688 l 581 160 q 578 131 578 140 q 624 75 578 75 q 679 86 646 75 l 694 17 m 531 560 q 421 613 485 613 q 285 547 343 613 q 204 399 228 481 q 181 242 181 317 q 206 120 181 172 q 292 68 232 68 q 399 122 353 68 q 472 252 446 176 q 511 426 497 328 l 531 560 z "},"å":{"ha":731,"x_min":51,"x_max":694,"o":"m 561 1000 q 601 903 601 960 q 560 806 601 846 q 463 765 519 765 q 365 806 406 765 q 325 903 325 846 q 366 1001 325 960 q 464 1042 407 1042 q 561 1000 521 1042 m 463 836 q 510 856 490 836 q 529 903 529 875 q 509 950 529 931 q 463 969 489 969 q 416 950 436 969 q 396 903 396 931 q 416 856 396 875 q 463 836 436 836 m 694 17 q 590 -15 636 -15 q 512 18 542 -15 q 481 103 482 51 l 475 103 q 269 -18 396 -18 q 107 56 163 -18 q 51 247 51 131 q 78 403 51 324 q 151 548 104 482 q 267 656 197 614 q 417 699 338 699 q 568 633 517 699 l 597 688 l 658 688 l 581 160 q 578 131 578 140 q 624 75 578 75 q 679 86 646 75 l 694 17 m 531 560 q 421 613 485 613 q 285 547 343 613 q 204 399 228 481 q 181 242 181 317 q 206 120 181 172 q 292 68 232 68 q 399 122 353 68 q 472 252 446 176 q 511 426 497 328 l 531 560 z "},"æ":{"ha":992,"x_min":50,"x_max":940,"o":"m 940 554 q 806 346 940 428 q 517 282 704 285 l 517 275 q 558 136 517 192 q 679 81 600 81 q 872 143 783 81 l 913 61 q 672 -17 800 -17 q 461 75 538 -17 q 268 -18 382 -18 q 106 60 161 -18 q 50 257 50 138 q 93 454 50 353 q 221 628 136 556 q 408 701 306 701 q 563 631 510 701 q 764 701 649 701 q 890 665 840 701 q 940 554 940 629 m 824 538 l 824 543 q 746 615 821 615 q 598 532 665 615 q 524 363 531 449 q 608 371 563 363 q 704 397 653 379 q 790 451 756 414 q 824 538 824 488 m 507 578 q 403 615 461 615 q 306 577 350 615 q 235 481 261 539 q 194 362 208 424 q 179 247 179 300 q 204 124 179 179 q 286 69 229 69 q 421 142 365 69 q 397 268 397 200 q 507 578 397 449 z "},"ç":{"ha":585,"x_min":50,"x_max":597,"o":"m 392 -162 q 315 -269 392 -232 q 201 -303 275 -290 l 192 -258 q 222 -250 204 -256 q 266 -221 240 -244 q 292 -165 292 -197 q 226 -99 292 -121 l 290 11 l 353 11 l 311 -64 q 392 -162 392 -89 m 597 628 l 528 551 q 388 613 467 613 q 267 557 318 613 q 193 431 215 501 q 171 292 171 360 q 209 142 171 206 q 325 78 247 78 q 408 92 372 78 q 493 139 444 106 l 532 50 q 418 -3 464 13 q 307 -18 372 -18 q 117 64 183 -18 q 50 274 50 146 q 149 573 50 447 q 413 699 249 699 q 597 628 518 699 z "},"è":{"ha":644,"x_min":51,"x_max":594,"o":"m 594 551 q 458 344 594 425 q 169 281 356 283 l 169 274 q 211 135 169 192 q 332 79 253 79 q 525 142 433 79 l 565 60 q 325 -18 456 -18 q 126 61 200 -18 q 51 267 51 140 q 153 567 51 435 q 417 699 254 699 q 544 663 494 699 q 594 551 594 626 m 478 542 q 456 594 478 576 q 399 613 435 613 q 251 530 317 613 q 176 361 185 447 q 382 407 307 361 q 449 467 419 431 q 478 542 478 504 m 472 801 l 371 801 l 194 1006 l 358 1006 l 472 801 z "},"é":{"ha":644,"x_min":51,"x_max":672,"o":"m 672 1006 l 457 801 l 354 801 l 493 1006 l 672 1006 m 594 551 q 458 344 594 425 q 169 281 356 283 l 169 274 q 211 135 169 192 q 332 79 253 79 q 525 142 433 79 l 565 60 q 325 -18 456 -18 q 126 61 200 -18 q 51 267 51 140 q 153 567 51 435 q 417 699 254 699 q 544 663 494 699 q 594 551 594 626 m 478 542 q 456 594 478 576 q 399 613 435 613 q 251 530 317 613 q 176 361 185 447 q 382 407 307 361 q 449 467 419 431 q 478 542 478 504 z "},"ê":{"ha":644,"x_min":51,"x_max":594,"o":"m 588 797 l 497 797 l 408 907 l 293 797 l 203 797 l 367 1006 l 476 1006 l 588 797 m 594 551 q 458 344 594 425 q 169 281 356 283 l 169 274 q 211 135 169 192 q 332 79 253 79 q 525 142 433 79 l 565 60 q 325 -18 456 -18 q 126 61 200 -18 q 51 267 51 140 q 153 567 51 435 q 417 699 254 699 q 544 663 494 699 q 594 551 594 626 m 478 542 q 456 594 478 576 q 399 613 435 613 q 251 530 317 613 q 176 361 185 447 q 382 407 307 361 q 449 467 419 431 q 478 542 478 504 z "},"ë":{"ha":644,"x_min":51,"x_max":594,"o":"m 588 932 q 564 876 588 900 q 508 853 540 853 q 453 876 476 853 q 429 932 429 900 q 453 988 429 964 q 508 1011 476 1011 q 565 988 542 1011 q 588 932 588 965 m 361 932 q 338 876 361 900 q 282 853 314 853 q 226 876 250 853 q 203 932 203 900 q 226 988 203 964 q 282 1011 250 1011 q 338 988 315 1011 q 361 932 361 965 m 594 551 q 458 344 594 425 q 169 281 356 283 l 169 274 q 211 135 169 192 q 332 79 253 79 q 525 142 433 79 l 565 60 q 325 -18 456 -18 q 126 61 200 -18 q 51 267 51 140 q 153 567 51 435 q 417 699 254 699 q 544 663 494 699 q 594 551 594 626 m 478 542 q 456 594 478 576 q 399 613 435 613 q 251 530 317 613 q 176 361 185 447 q 382 407 307 361 q 449 467 419 431 q 478 542 478 504 z "},"ì":{"ha":315,"x_min":-15,"x_max":263,"o":"m 258 681 l 178 81 l 178 0 l 56 0 l 136 601 l 136 681 l 258 681 m 263 801 l 161 801 l -15 1006 l 149 1006 l 263 801 z "},"í":{"ha":315,"x_min":56,"x_max":464,"o":"m 258 681 l 178 81 l 178 0 l 56 0 l 136 601 l 136 681 l 258 681 m 464 1006 l 249 801 l 146 801 l 285 1006 l 464 1006 z "},"î":{"ha":315,"x_min":14,"x_max":399,"o":"m 399 797 l 308 797 l 219 907 l 104 797 l 14 797 l 178 1006 l 288 1006 l 399 797 m 258 681 l 178 81 l 178 0 l 56 0 l 136 601 l 136 681 l 258 681 z "},"ï":{"ha":315,"x_min":15,"x_max":400,"o":"m 258 681 l 178 81 l 178 0 l 56 0 l 136 601 l 136 681 l 258 681 m 400 932 q 376 876 400 900 q 321 853 353 853 q 265 876 289 853 q 242 932 242 900 q 265 988 242 964 q 321 1011 289 1011 q 377 988 354 1011 q 400 932 400 965 m 174 932 q 150 876 174 900 q 94 853 126 853 q 39 876 63 853 q 15 932 15 900 q 39 988 15 964 q 94 1011 63 1011 q 151 988 128 1011 q 174 932 174 965 z "},"ð":{"ha":706,"x_min":51,"x_max":654,"o":"m 617 1013 l 474 935 q 654 419 654 660 q 613 210 654 308 q 491 49 572 113 q 306 -14 410 -14 q 118 68 185 -14 q 51 276 51 150 q 150 573 51 444 q 400 701 249 701 q 488 683 444 701 q 388 889 446 796 l 238 808 l 203 864 l 353 944 q 288 1026 328 981 l 367 1072 q 435 989 419 1011 l 588 1071 l 617 1013 m 532 343 q 536 407 536 372 q 501 557 536 496 q 389 618 467 618 q 282 579 328 618 q 213 481 236 540 q 179 370 190 422 q 168 278 168 318 q 203 130 168 190 q 315 69 238 69 q 430 117 381 69 q 501 222 479 164 q 532 343 524 279 z "},"ñ":{"ha":686,"x_min":57,"x_max":640,"o":"m 640 963 q 635 951 639 958 q 620 927 632 944 q 594 897 608 910 q 556 872 579 883 q 506 861 532 861 q 410 888 467 861 q 322 914 354 914 q 249 876 286 914 l 214 904 q 219 916 215 908 q 235 942 222 924 q 264 974 249 960 q 306 999 279 988 q 361 1011 332 1011 q 454 985 400 1011 q 532 958 508 958 q 608 997 569 958 l 640 963 m 626 457 l 576 81 l 576 0 l 454 0 l 511 421 q 518 496 518 481 q 428 599 518 599 q 236 507 342 599 l 168 0 l 57 0 l 122 486 q 128 558 128 521 q 122 625 128 594 q 111 668 117 656 l 106 681 l 228 694 q 240 594 238 660 q 458 699 357 699 q 631 518 631 699 q 626 457 631 490 z "},"ò":{"ha":706,"x_min":51,"x_max":656,"o":"m 656 408 q 559 111 656 240 q 306 -18 463 -18 q 117 66 182 -18 q 51 274 51 150 q 91 477 51 382 q 212 635 131 572 q 400 699 293 699 q 590 615 525 699 q 656 408 656 532 m 538 407 q 502 551 538 490 q 390 613 467 613 q 265 555 318 613 q 191 425 213 497 q 169 281 169 353 q 206 133 169 199 q 315 68 242 68 q 417 101 372 68 q 486 188 461 135 q 524 297 511 240 q 538 407 538 354 m 465 801 l 364 801 l 188 1006 l 351 1006 l 465 801 z "},"ó":{"ha":706,"x_min":51,"x_max":671,"o":"m 671 1006 l 456 801 l 353 801 l 492 1006 l 671 1006 m 656 408 q 559 111 656 240 q 306 -18 463 -18 q 117 66 182 -18 q 51 274 51 150 q 91 477 51 382 q 212 635 131 572 q 400 699 293 699 q 590 615 525 699 q 656 408 656 532 m 538 407 q 502 551 538 490 q 390 613 467 613 q 265 555 318 613 q 191 425 213 497 q 169 281 169 353 q 206 133 169 199 q 315 68 242 68 q 417 101 372 68 q 486 188 461 135 q 524 297 511 240 q 538 407 538 354 z "},"ô":{"ha":706,"x_min":51,"x_max":656,"o":"m 594 797 l 504 797 l 415 907 l 300 797 l 210 797 l 374 1006 l 483 1006 l 594 797 m 656 408 q 559 111 656 240 q 306 -18 463 -18 q 117 66 182 -18 q 51 274 51 150 q 91 477 51 382 q 212 635 131 572 q 400 699 293 699 q 590 615 525 699 q 656 408 656 532 m 538 407 q 502 551 538 490 q 390 613 467 613 q 265 555 318 613 q 191 425 213 497 q 169 281 169 353 q 206 133 169 199 q 315 68 242 68 q 417 101 372 68 q 486 188 461 135 q 524 297 511 240 q 538 407 538 354 z "},"õ":{"ha":706,"x_min":51,"x_max":656,"o":"m 631 960 q 626 949 629 956 q 610 924 622 942 q 584 894 599 907 q 546 869 569 881 q 496 858 522 858 q 401 885 457 858 q 313 911 344 911 q 239 874 276 911 l 204 901 q 209 913 206 906 q 226 939 213 921 q 254 971 239 957 q 296 997 269 985 q 351 1008 322 1008 q 444 982 390 1008 q 522 956 499 956 q 599 994 560 956 l 631 960 m 656 408 q 559 111 656 240 q 306 -18 463 -18 q 117 66 182 -18 q 51 274 51 150 q 91 477 51 382 q 212 635 131 572 q 400 699 293 699 q 590 615 525 699 q 656 408 656 532 m 538 407 q 502 551 538 490 q 390 613 467 613 q 265 555 318 613 q 191 425 213 497 q 169 281 169 353 q 206 133 169 199 q 315 68 242 68 q 417 101 372 68 q 486 188 461 135 q 524 297 511 240 q 538 407 538 354 z "},"ö":{"ha":706,"x_min":51,"x_max":656,"o":"m 625 929 q 601 874 625 897 q 546 850 578 850 q 490 874 514 850 q 467 929 467 897 q 490 985 467 961 q 546 1008 514 1008 q 602 985 579 1008 q 625 929 625 963 m 399 929 q 375 874 399 897 q 319 850 351 850 q 264 874 288 850 q 240 929 240 897 q 264 985 240 961 q 319 1008 288 1008 q 376 985 353 1008 q 399 929 399 963 m 656 408 q 559 111 656 240 q 306 -18 463 -18 q 117 66 182 -18 q 51 274 51 150 q 91 477 51 382 q 212 635 131 572 q 400 699 293 699 q 590 615 525 699 q 656 408 656 532 m 538 407 q 502 551 538 490 q 390 613 467 613 q 265 555 318 613 q 191 425 213 497 q 169 281 169 353 q 206 133 169 199 q 315 68 242 68 q 417 101 372 68 q 486 188 461 135 q 524 297 511 240 q 538 407 538 354 z "},"÷":{"ha":875,"x_min":94,"x_max":788,"o":"m 524 556 q 499 497 524 521 q 439 472 474 472 q 379 497 404 472 q 354 556 354 521 q 378 616 354 592 q 439 640 403 640 q 499 616 475 640 q 524 556 524 592 m 788 292 l 94 292 l 94 383 l 788 383 l 788 292 m 439 204 q 499 180 475 204 q 524 121 524 156 q 499 62 524 86 q 439 38 475 38 q 378 62 403 38 q 354 121 354 86 q 379 180 354 156 q 439 204 404 204 z "},"ø":{"ha":771,"x_min":36,"x_max":697,"o":"m 697 725 l 615 615 q 678 415 678 538 q 639 215 678 313 q 517 51 600 118 q 326 -17 435 -17 q 185 25 240 -17 l 94 -93 l 36 -51 l 133 75 q 74 272 74 151 q 98 423 74 347 q 165 561 122 499 q 276 663 208 624 q 425 703 344 703 q 563 667 506 703 l 635 764 l 697 725 m 503 583 q 415 615 467 615 q 289 559 343 615 q 212 429 235 503 q 189 283 189 356 q 206 178 189 213 l 503 583 m 563 411 q 547 517 563 471 l 244 110 q 335 71 281 71 q 464 129 410 71 q 540 263 518 188 q 563 411 563 338 z "},"ù":{"ha":708,"x_min":56,"x_max":671,"o":"m 671 15 q 567 -17 610 -17 q 492 14 526 -17 q 457 101 457 44 l 451 101 q 233 -18 372 -18 q 99 31 143 -18 q 56 165 56 79 q 60 221 56 192 l 113 601 l 113 681 l 233 681 l 174 238 q 169 181 169 207 q 263 68 169 68 q 394 141 332 68 q 481 388 456 214 l 511 600 l 511 681 l 633 681 l 563 168 q 560 132 560 140 q 599 74 560 74 q 625 77 611 74 q 647 83 639 81 l 656 88 l 671 15 m 433 801 l 332 801 l 156 1006 l 319 1006 l 433 801 z "},"ú":{"ha":708,"x_min":56,"x_max":671,"o":"m 647 1006 l 432 801 l 329 801 l 468 1006 l 647 1006 m 671 15 q 567 -17 610 -17 q 492 14 526 -17 q 457 101 457 44 l 451 101 q 233 -18 372 -18 q 99 31 143 -18 q 56 165 56 79 q 60 221 56 192 l 113 601 l 113 681 l 233 681 l 174 238 q 169 181 169 207 q 263 68 169 68 q 394 141 332 68 q 481 388 456 214 l 511 600 l 511 681 l 633 681 l 563 168 q 560 132 560 140 q 599 74 560 74 q 625 77 611 74 q 647 83 639 81 l 656 88 l 671 15 z "},"û":{"ha":708,"x_min":56,"x_max":671,"o":"m 571 797 l 481 797 l 392 907 l 276 797 l 186 797 l 350 1006 l 460 1006 l 571 797 m 671 15 q 567 -17 610 -17 q 492 14 526 -17 q 457 101 457 44 l 451 101 q 233 -18 372 -18 q 99 31 143 -18 q 56 165 56 79 q 60 221 56 192 l 113 601 l 113 681 l 233 681 l 174 238 q 169 181 169 207 q 263 68 169 68 q 394 141 332 68 q 481 388 456 214 l 511 600 l 511 681 l 633 681 l 563 168 q 560 132 560 140 q 599 74 560 74 q 625 77 611 74 q 647 83 639 81 l 656 88 l 671 15 z "},"ü":{"ha":708,"x_min":56,"x_max":671,"o":"m 590 932 q 567 876 590 900 q 511 853 543 853 q 456 876 479 853 q 432 932 432 900 q 456 988 432 964 q 511 1011 479 1011 q 567 988 544 1011 q 590 932 590 965 m 364 932 q 340 876 364 900 q 285 853 317 853 q 229 876 253 853 q 206 932 206 900 q 229 988 206 964 q 285 1011 253 1011 q 341 988 318 1011 q 364 932 364 965 m 671 15 q 567 -17 610 -17 q 492 14 526 -17 q 457 101 457 44 l 451 101 q 233 -18 372 -18 q 99 31 143 -18 q 56 165 56 79 q 60 221 56 192 l 113 601 l 113 681 l 233 681 l 174 238 q 169 181 169 207 q 263 68 169 68 q 394 141 332 68 q 481 388 456 214 l 511 600 l 511 681 l 633 681 l 563 168 q 560 132 560 140 q 599 74 560 74 q 625 77 611 74 q 647 83 639 81 l 656 88 l 671 15 z "},"ý":{"ha":568,"x_min":-211,"x_max":631,"o":"m 631 1006 l 415 801 l 313 801 l 451 1006 l 631 1006 m 626 681 l 282 -71 q -64 -319 167 -319 q -211 -282 -147 -319 l -158 -199 q -57 -228 -96 -228 q 85 -181 21 -228 q 188 -42 149 -133 l 207 4 l 63 681 l 181 681 l 282 164 l 521 681 l 626 681 z "},"þ":{"ha":719,"x_min":14,"x_max":665,"o":"m 311 1061 l 249 600 q 446 699 324 699 q 609 622 553 699 q 665 428 665 544 q 622 219 665 321 q 496 50 579 118 q 310 -18 413 -18 q 233 -3 272 -18 q 172 31 193 11 l 138 -229 l 138 -310 l 14 -310 l 189 982 l 189 1061 l 311 1061 m 536 436 q 510 560 536 507 q 418 613 483 613 q 201 247 251 613 q 193 178 197 222 q 186 122 189 135 q 243 83 207 99 q 314 68 279 68 q 476 186 417 68 q 536 436 536 304 z "},"ÿ":{"ha":568,"x_min":-211,"x_max":626,"o":"m 557 931 q 533 875 557 899 q 478 851 510 851 q 422 875 446 851 q 399 931 399 899 q 422 986 399 963 q 478 1010 446 1010 q 534 987 511 1010 q 557 931 557 964 m 331 931 q 307 875 331 899 q 251 851 283 851 q 196 875 219 851 q 172 931 172 899 q 196 986 172 963 q 251 1010 219 1010 q 308 987 285 1010 q 331 931 331 964 m 626 681 l 282 -71 q -64 -319 167 -319 q -211 -282 -147 -319 l -158 -199 q -57 -228 -96 -228 q 85 -181 21 -228 q 188 -42 149 -133 l 207 4 l 63 681 l 181 681 l 282 164 l 521 681 l 626 681 z "},"ı":{"ha":315,"x_min":56,"x_max":258,"o":"m 258 681 l 178 81 l 178 0 l 56 0 l 136 601 l 136 681 l 258 681 z "},"Ł":{"ha":654,"x_min":6,"x_max":604,"o":"m 539 579 l 250 447 l 203 96 l 604 96 l 590 0 l 63 0 l 114 386 l 6 336 l 19 431 l 126 479 l 186 915 l 186 1006 l 325 1006 l 263 542 l 553 674 l 539 579 z "},"ł":{"ha":315,"x_min":3,"x_max":349,"o":"m 335 515 l 229 468 l 178 81 l 178 0 l 54 0 l 110 414 l 3 367 l 17 461 l 122 508 l 188 982 l 188 1061 l 310 1061 l 242 563 l 349 610 l 335 515 z "},"Œ":{"ha":1358,"x_min":63,"x_max":1415,"o":"m 856 1006 l 1415 1006 l 1401 910 l 967 910 l 922 563 l 1258 563 l 1244 468 l 908 468 l 858 96 l 1293 96 l 1281 0 l 722 0 l 736 107 q 422 -14 607 -14 q 153 103 243 -14 q 63 401 63 219 q 82 579 63 492 q 143 747 101 667 q 243 887 185 826 q 385 983 301 947 q 565 1019 468 1019 q 842 900 747 1019 l 856 1006 m 797 601 q 740 832 797 740 q 553 924 682 924 q 389 874 461 924 q 276 746 317 825 q 215 579 235 667 q 194 404 194 492 q 215 248 194 317 q 294 131 236 179 q 440 82 351 82 q 605 131 533 82 q 717 260 676 181 q 777 427 757 340 q 797 601 797 514 z "},"œ":{"ha":1113,"x_min":50,"x_max":1061,"o":"m 1061 551 q 1024 433 1061 486 q 926 343 986 379 q 638 279 824 282 l 638 272 q 679 134 638 190 q 800 78 721 78 q 993 140 901 78 l 1033 58 q 793 -19 924 -19 q 557 110 629 -19 q 306 -19 458 -19 q 117 65 183 -19 q 50 274 50 149 q 90 472 50 376 q 213 633 131 568 q 400 699 294 699 q 621 565 556 699 q 885 699 725 699 q 1012 663 963 699 q 1061 551 1061 626 m 946 546 q 926 592 946 572 q 869 613 906 613 q 749 560 804 613 q 670 452 694 508 q 646 360 646 396 q 863 417 781 360 q 946 546 946 474 m 536 407 q 501 551 536 489 q 390 613 467 613 q 290 579 335 613 q 221 494 246 546 q 183 387 196 442 q 169 281 169 332 q 205 134 169 200 q 315 68 240 68 q 417 102 372 68 q 486 190 461 136 q 524 299 511 243 q 536 407 536 356 z "},"Š":{"ha":704,"x_min":17,"x_max":692,"o":"m 672 1299 l 501 1061 l 389 1061 l 288 1299 l 378 1299 l 458 1161 l 579 1299 l 672 1299 m 692 954 l 633 860 q 460 924 554 924 q 322 881 381 924 q 264 764 264 838 q 292 683 264 719 q 360 624 319 647 q 450 570 401 600 q 540 509 499 540 q 608 426 581 478 q 636 307 636 374 q 535 75 636 164 q 288 -14 433 -14 q 17 61 151 -14 l 75 165 q 183 100 140 118 q 293 82 226 82 q 441 144 376 82 q 506 289 506 207 q 467 390 506 347 q 375 463 429 433 q 267 526 321 493 q 174 613 213 558 q 136 743 136 668 q 233 947 136 874 q 469 1019 331 1019 q 692 954 594 1019 z "},"š":{"ha":522,"x_min":8,"x_max":550,"o":"m 550 1006 l 379 768 l 267 768 l 165 1006 l 256 1006 l 336 868 l 457 1006 l 550 1006 m 501 653 l 454 569 q 326 613 394 613 q 235 584 274 613 q 196 506 196 556 q 223 449 196 475 q 289 402 250 424 q 367 356 328 381 q 433 289 406 331 q 460 193 460 247 q 388 38 460 93 q 213 -18 315 -18 q 8 39 104 -18 l 68 124 q 208 68 135 68 q 304 97 264 68 q 344 181 344 126 q 317 245 344 217 q 252 295 290 274 q 175 340 214 317 q 109 403 136 364 q 82 492 82 442 q 156 646 82 593 q 333 699 229 699 q 501 653 425 699 z "},"Ÿ":{"ha":663,"x_min":58,"x_max":747,"o":"m 615 1133 q 592 1078 615 1101 q 536 1054 568 1054 q 481 1078 504 1054 q 457 1133 457 1101 q 481 1189 457 1165 q 536 1213 504 1213 q 592 1190 569 1213 q 615 1133 615 1167 m 389 1133 q 365 1078 389 1101 q 310 1054 342 1054 q 254 1078 278 1054 q 231 1133 231 1101 q 254 1189 231 1165 q 310 1213 278 1213 q 366 1190 343 1213 q 389 1133 389 1167 m 747 1006 l 403 497 l 336 0 l 210 0 l 276 499 l 58 1006 l 201 1006 l 371 617 l 631 1006 l 747 1006 z "},"Ž":{"ha":739,"x_min":-24,"x_max":758,"o":"m 683 1299 l 513 1061 l 400 1061 l 299 1299 l 389 1299 l 469 1161 l 590 1299 l 683 1299 m 758 1006 l 746 913 l 138 96 l 653 96 l 631 0 l -24 0 l -11 93 l 597 910 l 128 910 l 140 1006 l 758 1006 z "},"ž":{"ha":601,"x_min":25,"x_max":590,"o":"m 590 1006 l 419 768 l 307 768 l 206 1006 l 296 1006 l 376 868 l 497 1006 l 590 1006 m 588 615 l 175 88 l 531 88 l 517 0 l 25 0 l 25 67 l 435 593 l 126 593 l 139 681 l 588 681 l 588 615 z "},"ƒ":{"ha":722,"x_min":-150,"x_max":878,"o":"m 878 1017 l 813 936 q 717 985 775 985 q 622 959 664 985 q 551 884 579 933 q 505 790 522 835 q 471 681 488 744 l 628 681 l 603 593 l 447 593 l 261 -86 q 0 -319 196 -319 q -150 -275 -92 -319 l -86 -197 l -49 -222 q 7 -231 -31 -231 q 154 -72 110 -231 l 335 593 l 236 593 l 261 681 l 361 681 q 397 799 378 747 q 445 903 415 850 q 512 992 475 957 q 601 1050 549 1028 q 718 1072 654 1072 q 878 1017 808 1072 z "},"ˆ":{"ha":353,"x_min":-15,"x_max":369,"o":"m 369 797 l 279 797 l 190 907 l 75 797 l -15 797 l 149 1006 l 258 1006 l 369 797 z "},"ˇ":{"ha":367,"x_min":17,"x_max":401,"o":"m 401 1006 l 231 768 l 118 768 l 17 1006 l 107 1006 l 188 868 l 308 1006 l 401 1006 z "},"˘":{"ha":356,"x_min":21,"x_max":389,"o":"m 389 1006 q 179 818 340 818 q 63 862 106 818 q 21 988 21 906 l 21 1006 l 86 1006 q 190 913 93 913 q 324 1006 288 913 l 389 1006 z "},"˙":{"ha":279,"x_min":106,"x_max":292,"o":"m 208 957 q 270 933 249 957 q 292 875 292 908 q 262 810 292 842 q 186 779 232 779 q 126 803 146 779 q 106 858 106 828 q 135 924 106 892 q 208 957 164 957 z "},"˚":{"ha":307,"x_min":58,"x_max":335,"o":"m 294 1000 q 335 903 335 960 q 294 806 335 846 q 196 765 253 765 q 99 806 139 765 q 58 903 58 846 q 99 1001 58 960 q 197 1042 140 1042 q 294 1000 254 1042 m 196 836 q 243 856 224 836 q 263 903 263 875 q 242 950 263 931 q 196 969 222 969 q 149 950 169 969 q 129 903 129 931 q 149 856 129 875 q 196 836 169 836 z "},"˛":{"ha":408,"x_min":50,"x_max":350,"o":"m 350 15 q 164 -154 164 -71 q 221 -203 164 -203 q 333 -158 253 -203 l 349 -210 q 163 -279 249 -279 q 78 -253 107 -279 q 50 -183 50 -226 q 100 -84 50 -132 q 209 -9 150 -36 q 325 32 268 18 l 350 15 z "},"˜":{"ha":378,"x_min":-25,"x_max":401,"o":"m 401 900 q 397 889 400 896 q 381 865 393 882 q 355 834 369 847 q 317 810 340 821 q 267 799 293 799 q 172 825 228 799 q 83 851 115 851 q 10 814 47 851 l -25 842 q -20 853 -24 846 q -3 879 -17 861 q 25 911 10 897 q 67 937 40 925 q 122 949 93 949 q 215 922 161 949 q 293 896 269 896 q 369 935 331 896 l 401 900 z "},"˝":{"ha":428,"x_min":-17,"x_max":468,"o":"m 468 1006 l 253 774 l 169 774 l 311 1006 l 468 1006 m 281 1006 l 67 774 l -17 774 l 124 1006 l 281 1006 z "},"π":{"ha":929,"x_min":96,"x_max":897,"o":"m 872 711 l 897 654 q 736 586 840 592 q 624 182 624 335 q 688 81 624 81 q 746 94 714 81 q 757 63 750 85 q 768 29 764 40 q 640 -17 711 -17 q 542 35 572 -17 q 513 164 513 86 q 638 586 513 383 l 413 586 l 394 460 q 379 359 386 400 q 358 260 372 318 q 325 161 344 203 q 278 77 306 119 q 211 4 251 35 q 121 -43 171 -26 q 96 8 108 -14 q 197 103 157 42 q 247 239 238 165 l 288 536 q 294 562 289 546 q 301 586 300 578 q 213 552 251 582 q 158 475 175 522 q 99 493 117 486 q 178 629 114 578 q 339 681 243 681 l 738 681 q 872 711 818 681 z "},"–":{"ha":765,"x_min":39,"x_max":726,"o":"m 726 396 l 714 317 l 39 317 l 51 396 l 726 396 z "},"—":{"ha":1251,"x_min":39,"x_max":1213,"o":"m 1213 396 l 1200 317 l 39 317 l 51 396 l 1213 396 z "},"‘":{"ha":265,"x_min":63,"x_max":275,"o":"m 275 963 l 265 954 q 194 860 194 893 q 222 819 194 850 q 250 760 250 789 q 222 692 250 717 q 154 667 194 667 q 87 695 111 667 q 63 765 63 724 q 112 898 63 835 q 233 1008 161 961 l 275 963 z "},"’":{"ha":363,"x_min":88,"x_max":300,"o":"m 300 908 q 250 776 300 839 q 129 665 200 713 l 88 711 q 106 726 90 713 q 129 747 122 740 q 147 767 136 754 q 163 792 158 781 q 168 814 168 803 q 140 854 168 824 q 113 914 113 885 q 140 981 113 957 q 208 1006 168 1006 q 276 978 251 1006 q 300 908 300 950 z "},"‚":{"ha":350,"x_min":25,"x_max":238,"o":"m 238 69 q 188 -62 238 1 q 65 -174 138 -126 l 25 -128 q 40 -115 28 -125 q 58 -99 53 -104 q 74 -82 64 -93 q 90 -63 85 -71 q 100 -45 96 -56 q 104 -25 104 -35 q 76 15 104 -15 q 49 75 49 46 q 77 142 49 118 q 146 167 106 167 q 213 139 188 167 q 238 69 238 111 z "},"“":{"ha":529,"x_min":63,"x_max":539,"o":"m 275 963 l 265 954 q 194 860 194 893 q 222 819 194 850 q 250 760 250 789 q 222 692 250 717 q 154 667 194 667 q 87 695 111 667 q 63 765 63 724 q 112 898 63 835 q 233 1008 161 961 l 275 963 m 539 963 l 529 954 q 458 860 458 893 q 486 819 458 850 q 514 760 514 789 q 486 692 514 717 q 418 667 458 667 q 351 695 375 667 q 326 765 326 724 q 376 898 326 835 q 497 1008 425 961 l 539 963 z "},"”":{"ha":626,"x_min":88,"x_max":564,"o":"m 564 908 q 514 776 564 840 q 392 665 464 713 l 351 711 q 367 724 354 714 q 385 740 379 735 q 401 757 390 746 q 417 776 411 768 q 426 794 422 783 q 431 814 431 804 q 403 854 431 824 q 375 914 375 885 q 403 981 375 957 q 472 1006 432 1006 q 539 978 514 1006 q 564 908 564 950 m 300 908 q 250 776 300 839 q 129 665 200 713 l 88 711 q 106 726 90 713 q 129 747 122 740 q 147 767 136 754 q 163 792 158 781 q 168 814 168 803 q 140 854 168 824 q 113 914 113 885 q 140 981 113 957 q 208 1006 168 1006 q 276 978 251 1006 q 300 908 300 950 z "},"„":{"ha":611,"x_min":24,"x_max":500,"o":"m 236 69 q 186 -63 236 0 q 65 -174 136 -126 l 24 -128 l 32 -121 q 104 -25 104 -62 q 76 15 104 -15 q 49 75 49 46 q 76 142 49 118 q 144 167 104 167 q 212 139 188 167 q 236 69 236 111 m 500 69 q 450 -63 500 0 q 329 -174 400 -126 l 288 -128 l 296 -121 q 368 -25 368 -62 q 340 15 368 -15 q 313 75 313 46 q 340 142 313 118 q 408 167 368 167 q 476 139 451 167 q 500 69 500 111 z "},"†":{"ha":681,"x_min":64,"x_max":638,"o":"m 638 668 l 553 618 l 371 650 q 378 465 378 490 q 376 429 378 436 q 338 225 375 419 l 257 -185 l 207 -185 l 240 225 q 246 317 243 251 q 256 429 249 383 q 325 650 257 440 l 138 618 l 64 674 l 153 728 l 331 692 l 322 913 l 396 1014 l 446 913 l 376 692 l 568 728 l 638 668 z "},"‡":{"ha":739,"x_min":47,"x_max":692,"o":"m 692 668 l 607 618 l 426 650 q 430 553 426 640 q 433 442 433 467 l 433 429 q 417 362 431 410 q 386 251 404 314 q 365 179 368 189 l 546 208 l 621 156 l 531 103 l 361 138 l 361 -83 l 292 -181 l 238 -83 l 308 138 l 119 103 l 47 161 l 135 208 l 314 179 q 312 269 314 194 q 310 379 310 344 q 311 429 310 418 q 381 650 313 440 l 192 618 l 119 674 l 207 728 l 386 692 l 378 913 l 450 1014 l 501 913 l 432 692 l 622 728 l 692 668 z "},"•":{"ha":563,"x_min":64,"x_max":499,"o":"m 64 496 q 126 649 64 585 q 281 713 189 713 q 435 649 372 713 q 499 496 499 586 q 437 342 499 406 q 283 279 375 279 q 128 342 192 279 q 64 496 64 406 z "},"…":{"ha":888,"x_min":50,"x_max":776,"o":"m 142 -18 q 76 9 103 -18 q 50 75 50 36 q 76 140 50 113 q 140 167 103 167 q 206 140 179 167 q 233 75 233 114 q 206 9 233 36 q 142 -18 179 -18 m 413 -18 q 347 9 374 -18 q 321 75 321 36 q 347 140 321 113 q 411 167 374 167 q 477 140 450 167 q 504 75 504 114 q 477 9 504 36 q 413 -18 450 -18 m 685 -18 q 619 9 646 -18 q 593 75 593 36 q 619 140 593 113 q 683 167 646 167 q 749 140 722 167 q 776 75 776 114 q 749 9 776 36 q 685 -18 722 -18 z "},"‰":{"ha":1461,"x_min":63,"x_max":1400,"o":"m 1400 314 q 1372 172 1400 244 q 1283 47 1343 100 q 1150 -7 1224 -7 q 1010 58 1060 -7 q 960 214 960 124 q 1029 435 960 336 q 1218 533 1099 533 q 1353 468 1306 533 q 1400 314 1400 403 m 936 314 q 908 172 936 244 q 819 47 879 100 q 686 -7 760 -7 q 546 58 596 -7 q 496 214 496 124 q 565 435 496 336 q 754 533 635 533 q 889 468 842 533 q 936 314 936 403 m 844 985 l 235 -18 l 140 -18 l 704 907 l 464 907 q 501 768 501 847 q 473 626 501 699 q 385 501 444 554 q 253 447 326 447 q 113 513 163 447 q 63 668 63 578 q 129 888 63 789 q 310 988 196 988 q 326 987 311 988 q 358 985 340 986 q 382 985 375 985 l 844 985 m 1299 311 q 1277 409 1299 365 q 1210 453 1256 453 q 1103 374 1146 453 q 1060 219 1060 294 q 1085 122 1060 167 q 1157 76 1110 76 q 1260 156 1222 76 q 1299 311 1299 235 m 400 767 q 378 863 400 819 q 313 907 357 907 q 206 829 249 907 q 163 674 163 751 q 188 575 163 619 q 260 531 213 531 q 363 610 325 531 q 400 767 400 690 m 835 311 q 813 409 835 365 q 746 453 792 453 q 639 374 682 453 q 596 219 596 294 q 621 122 596 167 q 693 76 646 76 q 797 156 758 76 q 835 311 835 235 z "},"‹":{"ha":422,"x_min":78,"x_max":367,"o":"m 367 247 l 285 235 l 78 457 l 279 681 l 364 665 l 203 457 l 367 247 z "},"›":{"ha":431,"x_min":75,"x_max":364,"o":"m 364 454 l 157 232 l 75 244 l 239 454 l 78 663 l 163 678 l 364 454 z "},"⁄":{"ha":335,"x_min":-137,"x_max":494,"o":"m -56 -31 l -137 -31 l 413 1046 l 494 1046 l -56 -31 z "},"€":{"ha":667,"x_min":32,"x_max":683,"o":"m 683 629 l 615 550 q 549 599 578 586 q 475 611 521 611 q 363 563 415 611 q 285 451 311 515 l 557 451 l 547 388 l 265 388 q 256 301 258 349 l 538 301 l 528 236 l 260 236 q 309 125 269 172 q 408 78 349 78 q 575 139 488 78 l 614 50 q 501 -3 549 13 q 390 -18 454 -18 q 213 53 279 -18 q 136 236 146 125 l 32 236 l 42 301 l 136 301 q 149 388 140 342 l 53 388 l 63 451 l 167 451 q 297 631 207 563 q 503 700 386 700 q 683 629 606 700 z "},"™":{"ha":806,"x_min":104,"x_max":743,"o":"m 743 1006 l 700 693 l 632 693 l 658 883 q 661 903 658 889 q 550 693 638 856 l 508 693 q 479 808 497 735 q 454 908 461 881 q 453 897 454 901 l 425 693 l 367 693 l 410 1006 l 501 1006 l 550 804 l 654 1006 l 743 1006 m 379 1006 l 372 954 l 272 954 l 236 694 l 167 694 l 203 954 l 104 954 l 111 1006 l 379 1006 z "},"Ω":{"ha":1010,"x_min":6,"x_max":954,"o":"m 894 0 l 551 0 l 561 74 q 711 197 650 107 q 797 387 772 288 q 821 588 821 486 q 762 829 821 733 q 574 925 703 925 q 407 871 481 925 q 292 733 333 817 q 229 558 250 649 q 208 381 208 467 q 244 188 208 271 q 357 74 281 106 l 349 0 l 6 0 l 19 96 l 115 96 l 204 89 q 114 224 146 138 q 82 413 82 310 q 143 713 82 575 q 321 935 204 850 q 588 1021 438 1021 q 861 906 768 1021 q 954 604 954 790 q 891 306 954 450 q 722 89 828 161 l 813 96 l 908 96 l 894 0 z "},"∂":{"ha":726,"x_min":51,"x_max":676,"o":"m 539 493 q 544 628 544 536 q 490 844 544 769 q 354 918 435 918 q 280 908 315 918 q 229 888 244 897 l 214 878 q 181 949 193 928 q 205 969 189 957 q 274 1000 221 981 q 385 1019 326 1019 q 597 913 518 1019 q 676 610 676 806 q 647 351 676 465 q 575 171 618 238 q 476 60 532 104 q 372 1 419 17 q 281 -14 324 -14 q 206 -3 243 -14 q 132 33 168 8 q 74 104 96 57 q 51 215 51 151 q 85 377 51 306 q 169 488 118 449 q 272 549 219 528 q 368 569 324 569 q 539 493 479 569 m 524 403 q 374 472 467 472 q 232 394 290 472 q 174 225 174 317 q 203 122 174 165 q 294 79 233 79 q 436 172 376 79 q 524 403 496 265 z "},"∆":{"ha":876,"x_min":-31,"x_max":774,"o":"m 764 0 l -31 0 l -21 74 q 128 367 32 178 q 301 712 224 557 q 449 1004 379 867 l 553 1004 q 774 74 669 524 l 764 0 m 89 92 l 624 92 q 483 689 489 664 q 470 769 478 717 q 458 840 463 822 l 89 92 z "},"∏":{"ha":1157,"x_min":43,"x_max":1115,"o":"m 953 -317 l 819 -317 l 819 910 l 338 910 l 338 -317 l 204 -317 l 204 910 l 43 910 l 43 1006 l 1115 1006 l 1115 910 l 953 910 l 953 -317 z "},"∑":{"ha":1008,"x_min":76,"x_max":932,"o":"m 932 -317 l 76 -317 l 76 -181 q 479 369 210 3 q 300 608 446 414 q 76 908 154 803 l 76 1004 l 918 1004 l 918 908 l 244 908 q 626 408 351 769 q 193 -176 279 -67 l 932 -176 l 932 -317 z "},"−":{"ha":883,"x_min":100,"x_max":783,"o":"m 783 300 l 100 300 l 100 385 l 783 385 l 783 300 z "},"√":{"ha":840,"x_min":-64,"x_max":899,"o":"m 404 -319 l 289 -319 l 83 296 l -36 254 l -64 340 l 163 421 l 354 -156 l 799 1317 l 899 1317 l 404 -319 z "},"∞":{"ha":1128,"x_min":108,"x_max":1019,"o":"m 807 114 q 678 156 735 114 q 564 274 622 199 q 449 156 506 199 q 321 114 393 114 q 167 178 225 114 q 108 344 108 243 q 167 510 108 446 q 322 575 225 575 q 449 533 393 575 q 564 417 506 490 q 678 533 622 490 q 806 575 735 575 q 961 510 903 575 q 1019 344 1019 446 q 961 178 1019 243 q 807 114 903 114 m 806 463 q 711 431 754 463 q 622 344 668 399 q 808 228 719 228 q 895 259 863 228 q 928 344 928 290 q 894 431 928 399 q 806 463 860 463 m 506 344 q 453 401 476 379 q 394 443 431 424 q 322 463 358 463 q 234 431 268 463 q 200 344 200 399 q 233 259 200 290 q 319 228 265 228 q 506 344 408 228 z "},"∫":{"ha":356,"x_min":-10,"x_max":372,"o":"m -10 -314 l -10 -235 q 92 -187 57 -235 q 128 -78 128 -140 l 128 756 q 372 1019 128 1019 l 372 939 q 275 892 307 939 q 243 782 243 846 l 243 -50 q 180 -246 243 -178 q -10 -314 117 -314 z "},"≈":{"ha":913,"x_min":115,"x_max":793,"o":"m 185 403 l 115 447 q 184 532 133 486 q 301 578 235 578 q 463 530 369 578 q 601 482 556 482 q 678 513 643 482 q 722 567 713 543 q 793 522 769 538 q 761 474 782 500 q 697 420 740 449 q 606 392 653 392 q 446 440 539 392 q 306 488 353 488 q 185 403 242 488 m 185 138 l 115 182 q 184 267 133 221 q 301 313 235 313 q 463 265 369 313 q 601 217 556 217 q 678 247 643 217 q 722 301 713 278 q 793 257 769 272 q 761 209 782 235 q 697 155 740 183 q 606 126 653 126 q 446 174 539 126 q 306 222 353 222 q 185 138 242 222 z "},"≠":{"ha":886,"x_min":100,"x_max":785,"o":"m 785 165 l 422 165 l 358 -14 l 268 -14 l 332 165 l 100 165 l 100 251 l 364 251 l 431 433 l 100 433 l 100 519 l 461 519 l 528 703 l 617 703 l 550 519 l 785 519 l 785 433 l 519 433 l 453 251 l 785 251 l 785 165 z "},"≤":{"ha":875,"x_min":94,"x_max":786,"o":"m 786 106 l 94 347 l 94 450 l 786 690 l 786 585 l 228 397 l 786 210 l 786 106 m 786 0 l 94 0 l 94 96 l 786 96 l 786 0 z "},"≥":{"ha":875,"x_min":96,"x_max":788,"o":"m 788 347 l 96 106 l 96 210 l 654 397 l 96 585 l 96 690 l 788 450 l 788 347 m 788 0 l 96 0 l 96 96 l 788 96 l 788 0 z "},"◊":{"ha":700,"x_min":51,"x_max":649,"o":"m 558 500 l 349 904 q 142 500 210 635 q 350 90 304 179 q 446 280 374 136 q 558 500 518 424 m 378 -15 l 322 -15 l 51 500 q 137 664 92 578 q 237 855 182 750 q 322 1017 292 960 l 378 1017 q 463 855 408 960 q 563 664 518 750 q 649 500 608 578 l 378 -15 z "},"ﬁ":{"ha":694,"x_min":-215,"x_max":682,"o":"m 682 914 l 575 882 q 541 956 569 931 q 467 982 513 982 q 351 924 400 982 q 281 713 303 867 q 276 681 278 696 l 639 681 l 561 86 l 561 0 l 438 0 l 517 593 l 263 593 l 169 -86 q 95 -258 156 -196 q -60 -319 35 -319 q -215 -276 -149 -319 l -160 -197 q -112 -224 -129 -218 q -62 -231 -96 -231 q 61 -72 40 -231 l 151 593 l 53 593 l 65 681 l 165 681 q 197 838 179 775 q 248 958 215 901 q 336 1043 281 1015 q 471 1071 392 1071 q 610 1031 553 1071 q 682 914 667 990 z "},"ﬂ":{"ha":721,"x_min":-214,"x_max":714,"o":"m 714 1064 l 583 88 l 583 0 l 458 0 l 581 897 q 552 960 581 935 q 479 985 524 985 q 418 975 444 985 q 363 939 392 965 q 313 856 335 913 q 281 713 292 799 q 276 681 279 696 l 432 681 l 419 593 l 264 593 l 171 -86 q -58 -319 139 -319 q -214 -276 -147 -319 l -158 -196 q -112 -224 -129 -217 q -61 -231 -94 -231 q 63 -72 42 -231 l 151 593 l 53 593 l 65 681 l 165 681 q 184 796 174 747 q 217 900 194 844 q 270 990 239 956 q 353 1049 301 1025 q 474 1072 406 1072 q 618 1028 561 1072 l 714 1064 z "}," ":{"ha":325,"x_min":0,"x_max":0,"o":"z "},"#":{"ha":889,"x_min":79,"x_max":811,"o":"m 811 592 l 629 592 l 604 411 l 776 411 l 776 335 l 594 335 l 547 0 l 463 0 l 508 335 l 340 335 l 293 0 l 210 0 l 256 335 l 79 335 l 79 411 l 267 411 l 290 592 l 115 592 l 115 671 l 301 671 l 344 994 l 431 994 l 386 671 l 556 671 l 599 994 l 682 994 l 639 671 l 811 671 l 811 592 m 544 592 l 375 592 l 351 411 l 519 411 l 544 592 z "},"!":{"ha":342,"x_min":49,"x_max":340,"o":"m 339 926 l 213 288 l 132 300 l 183 949 q 207 990 185 974 q 258 1007 229 1007 q 315 989 290 1007 q 340 940 340 971 l 339 926 m 140 -19 q 75 8 101 -19 q 49 74 49 35 q 75 138 49 111 q 139 165 101 165 q 205 139 178 165 q 232 74 232 113 q 205 8 232 35 q 140 -19 178 -19 z "},"\"":{"ha":417,"x_min":97,"x_max":436,"o":"m 243 1006 l 208 761 l 149 606 l 110 606 l 97 764 l 132 1006 l 243 1006 m 436 1006 l 401 761 l 342 606 l 303 606 l 290 764 l 325 1006 l 436 1006 z "}}}
